<svg version="1.2" xmlns="http://www.w3.org/2000/svg" viewBox="0 0 18 22" width="18" height="22">
	<title>lock-svg</title>
	<style>
		.s0 { fill: #000000 } 
	</style>
	<path class="s0" d="m10 13c0-0.6-0.4-1-1-1-0.6 0-1 0.4-1 1v2c0 0.6 0.4 1 1 1 0.6 0 1-0.4 1-1z"/>
	<path fill-rule="evenodd" class="s0" d="m4 6c0-2.8 2.2-5 5-5 2.8 0 5 2.2 5 5v1.1c1.7 0.4 3 1.9 3 3.7v5.5c0 2.7-2.3 4.7-5 4.7h-6c-2.7 0-5-2-5-4.7v-5.5c0-1.8 1.3-3.3 3-3.7zm7.8-1c-0.4-1.1-1.5-2-2.8-2-1.3 0-2.4 0.9-2.8 2q-0.2 0.5-0.2 1v1h6v-1q0-0.5-0.2-1zm-8.8 11.3c0 1.4 1.3 2.7 3 2.7h6c1.7 0 3-1.3 3-2.7v-5.5c0-0.9-0.8-1.8-2-1.8h-8c-1.2 0-2 0.9-2 1.8z"/>
</svg>