<?xml version="1.0" encoding="utf-8"?>
<!-- Generator: Adobe Illustrator 27.5.0, SVG Export Plug-In . SVG Version: 6.00 Build 0)  -->
<svg version="1.1" xmlns="http://www.w3.org/2000/svg" xmlns:xlink="http://www.w3.org/1999/xlink" x="0px" y="0px"
	 viewBox="0 0 2475 1650" style="enable-background:new 0 0 2475 1650;" xml:space="preserve">
<g id="Background">
	<rect style="fill:#FFFFFF;" width="2475" height="1650"/>
</g>
<g id="Illustration">
	<g>
		
			<linearGradient id="SVGID_1_" gradientUnits="userSpaceOnUse" x1="2032.3669" y1="763.6712" x2="-110.4859" y2="771.7571" gradientTransform="matrix(0.9998 -0.0186 0.0186 0.9998 0.2557 23.3991)">
			<stop  offset="0" style="stop-color:#DAE3FE"/>
			<stop  offset="1" style="stop-color:#E9EFFD"/>
		</linearGradient>
		<path style="fill:url(#SVGID_1_);" d="M2258.562,859.317l-47.224-53.928c0,0-212.031-187.52-219.582-399.117
			c-7.551-211.597-101.44-240.04-326.118-253.329c-189.953-11.236-409.527-43.093-586.017,76.99
			c-77.453,52.698-169.122,79.484-262.065,76.279L612.7,299.149c-97.739-3.37-193.923,26.338-273.399,84.687
			C221.48,470.338,94.603,629.572,146.365,900.392c8.789,45.985,14.347,94.191,15.219,141.035l2.143,115.068
			c1.882,101.055,80.766,182.634,179.315,184.791l1537.586,33.667c158.07,3.46,310.026-61.7,418.62-179.42
			c28.958-31.391,44.67-73.194,43.865-116.417C2341.599,997.847,2311.546,919.826,2258.562,859.317z"/>
		<g>
			<path style="fill:#91B3FA;" d="M2297.817,320.861c25.297,115.498,140.97,795.103-569.909,1055.663
				c0,0-208.057-421.041,551.17-1060.112C2285.72,310.82,2296.165,313.315,2297.817,320.861z"/>
			<path style="fill:#BDD0FB;" d="M2238.577,432.954c-7.915,40.575-17.559,80.7-27.907,120.667
				c-10.455,39.932-21.838,79.621-34.145,119.026c-24.531,78.837-53.07,156.442-85.661,232.351
				c-16.494,37.87-34.068,75.272-52.778,112.119c-18.995,36.702-39.224,72.769-60.824,108.035
				c-21.972,35.034-45.299,69.234-70.411,102.149c-25.461,32.644-52.64,63.963-81.822,93.418c-1.624,1.64-4.271,1.652-5.91,0.028
				c-1.64-1.625-1.652-4.271-0.028-5.91l0.014-0.014l0.046-0.046c29.03-29.023,56.133-59.943,81.567-92.225
				c25.091-32.558,48.445-66.438,70.471-101.182c21.659-34.98,41.974-70.789,61.074-107.258
				c18.817-36.616,36.516-73.809,53.145-111.489c32.864-75.531,61.722-152.83,86.59-231.402
				c12.476-39.272,24.033-78.841,34.665-118.656c10.521-39.831,20.356-79.907,28.433-120.262l0.007-0.035
				c0.192-0.959,1.125-1.581,2.083-1.388C2238.145,431.07,2238.769,431.995,2238.577,432.954z"/>
		</g>
		<g>
			<path style="fill:#BDD0FB;" d="M1991.981,99.696c61.47,121.338,385.562,840.947-346.22,1245.3
				c0,0-355.387-422.625,323.716-1246.953C1975.418,90.833,1987.965,91.769,1991.981,99.696z"/>
			<path style="fill:#BDD0FB;" d="M1956.219,231.525c1.658,22.913,2.539,45.804,3.174,68.726
				c0.604,22.917,0.827,45.842,0.732,68.765c-0.177,45.847-1.711,91.689-4.498,137.456c-5.678,91.516-16.426,182.808-34.104,272.866
				c-17.715,89.99-42.25,178.923-77.234,263.944c-17.474,42.487-37.696,83.905-61.104,123.513
				c-11.786,19.749-24.19,39.154-37.634,57.845c-13.466,18.671-27.743,36.763-42.867,54.147c-1.392,1.6-3.817,1.768-5.417,0.376
				c-1.6-1.392-1.768-3.817-0.377-5.417l0.01-0.011l0.023-0.027c15.017-17.123,29.212-34.963,42.618-53.392
				c13.384-18.451,25.752-37.629,37.518-57.163c23.368-39.18,43.617-80.225,61.157-122.389
				c35.118-84.374,59.925-172.851,77.944-262.49c17.985-89.708,29.08-180.755,35.115-272.079
				c2.965-45.671,4.682-91.43,5.043-137.203c0.187-22.886,0.057-45.775-0.455-68.655c-0.54-22.87-1.332-45.772-2.888-68.559
				l-0.002-0.026c-0.061-0.897,0.616-1.673,1.512-1.733C1955.382,229.958,1956.157,230.629,1956.219,231.525z"/>
		</g>
		<g>
			<path style="fill:#BDD0FB;" d="M2323.59,878.421c-12.995,73.731-106.138,499.716-521.575,484.115
				c0,0-10.873-296.227,513.144-491.163C2319.743,869.667,2324.439,873.604,2323.59,878.421z"/>
			
				<linearGradient id="SVGID_00000056410595116502788350000003072002384320667039_" gradientUnits="userSpaceOnUse" x1="1835.7881" y1="1129.6865" x2="2270.1851" y2="1129.6865">
				<stop  offset="0" style="stop-color:#DAE3FE"/>
				<stop  offset="1" style="stop-color:#E9EFFD"/>
			</linearGradient>
			<path style="fill:url(#SVGID_00000056410595116502788350000003072002384320667039_);" d="M2269.921,930.528
				c-11.984,21.768-25.478,42.437-39.506,62.8c-14.09,20.305-28.965,40.06-44.457,59.316c-15.501,19.25-31.654,37.978-48.393,56.174
				c-16.8,18.14-34.213,35.711-52.152,52.738c-17.907,17.066-36.625,33.264-55.667,49.061c-9.635,7.762-19.23,15.579-29.154,22.977
				c-9.755,7.621-19.897,14.721-29.926,21.979c-40.509,28.476-83.221,53.857-127.622,75.902c-2.484,1.233-5.497,0.22-6.731-2.266
				c-1.233-2.484-0.219-5.497,2.265-6.731l0.044-0.022l0.033-0.016c44.125-21.374,86.665-46.087,127.097-73.92
				c10.01-7.099,20.137-14.039,29.885-21.503c9.916-7.241,19.509-14.903,29.146-22.512c19.048-15.49,37.792-31.391,55.744-48.169
				c17.983-16.739,35.459-34.03,52.337-51.9c16.817-17.924,33.063-36.393,48.67-55.39c15.597-19.003,30.59-38.512,44.804-58.575
				c14.135-20.086,27.823-40.634,39.831-61.949l0.036-0.064c0.577-1.024,1.873-1.385,2.897-0.809
				C2270.119,928.222,2270.482,929.507,2269.921,930.528z"/>
		</g>
		<g>
			<path style="fill:#BDD0FB;" d="M359.472,119.757c-38.027,124.692-229.687,859.365,427.413,1163.05
				c0,0,250.683-451.182-408.764-1167.336C372.352,109.207,361.956,111.611,359.472,119.757z"/>
			
				<linearGradient id="SVGID_00000124136047332739579270000017552483667255100545_" gradientUnits="userSpaceOnUse" x1="403.6048" y1="734.0284" x2="738.1836" y2="734.0284">
				<stop  offset="0" style="stop-color:#DAE3FE"/>
				<stop  offset="1" style="stop-color:#E9EFFD"/>
			</linearGradient>
			<path style="fill:url(#SVGID_00000124136047332739579270000017552483667255100545_);" d="M407.083,242.834
				c2.55,43.683,6.928,87.33,12.163,130.814c5.273,43.492,11.596,86.857,18.993,130.033
				c14.826,86.336,33.739,172.012,58.199,256.094c24.54,84.008,54.529,166.592,93.164,245.056
				c9.591,19.64,19.928,38.902,30.742,57.874c10.79,18.99,22.306,37.558,34.508,55.648c24.26,36.276,51.651,70.436,82.133,101.537
				l0.025,0.026c1.588,1.619,1.561,4.219-0.058,5.807c-1.62,1.587-4.22,1.562-5.807-0.058l-0.013-0.014
				c-30.763-31.668-58.295-66.343-82.613-103.057c-12.232-18.311-23.757-37.085-34.541-56.264
				c-10.809-19.162-21.127-38.602-30.688-58.404c-38.512-79.115-68.232-162.157-92.469-246.529
				c-24.153-84.444-42.717-170.385-57.181-256.941c-7.215-43.286-13.353-86.746-18.437-130.329
				c-5.047-43.591-9.233-87.261-11.596-131.134c-0.052-0.959,0.684-1.779,1.643-1.83c0.959-0.052,1.779,0.684,1.83,1.643
				L407.083,242.834z"/>
		</g>
		<g>
			<path style="fill:#91B3FA;" d="M222.727,718.005c-3.692,74.086-7.571,506.101,397.171,582.56c0,0,75.768-283.754-387.474-587.511
				C228.372,710.397,222.968,713.165,222.727,718.005z"/>
			<path style="fill:#BDD0FB;" d="M266.749,779.097c7.594,23.129,16.127,46.022,24.994,68.734
				c8.913,22.706,18.338,45.21,28.216,67.508c9.863,22.306,20.284,44.361,31.183,66.169c10.936,21.787,22.238,43.395,34.331,64.552
				c24.044,42.378,50.452,83.448,80.186,121.952c3.606,4.899,7.573,9.509,11.352,14.268l5.732,7.087
				c1.908,2.364,3.954,4.611,5.924,6.922c3.998,4.571,7.9,9.231,11.975,13.73l12.411,13.323
				c16.853,17.459,34.663,33.965,53.632,49.002l0.042,0.034c1.742,1.38,2.034,3.91,0.654,5.652c-1.38,1.741-3.911,2.034-5.652,0.654
				l-0.025-0.019c-19.202-15.467-37.141-32.366-54.065-50.18l-12.451-13.581c-4.084-4.583-7.99-9.32-11.993-13.971
				c-1.971-2.351-4.02-4.64-5.928-7.041l-5.731-7.199c-3.776-4.833-7.742-9.52-11.339-14.487
				c-29.678-39.068-55.901-80.584-79.716-123.341c-11.979-21.347-23.151-43.127-33.952-65.075
				c-10.762-21.968-21.039-44.171-30.753-66.615c-9.728-22.438-18.996-45.071-27.751-67.901
				c-8.714-22.854-17.068-45.814-24.528-69.156c-0.287-0.896,0.208-1.856,1.104-2.142c0.892-0.285,1.846,0.202,2.138,1.091
				L266.749,779.097z"/>
		</g>
		<g>
			<g>
				
					<linearGradient id="SVGID_00000129184291016971762390000000742281229790304951_" gradientUnits="userSpaceOnUse" x1="1158.5668" y1="1482.1697" x2="1302.5677" y2="150.1668">
					<stop  offset="0" style="stop-color:#09005D"/>
					<stop  offset="1" style="stop-color:#1A0F91"/>
				</linearGradient>
				<path style="fill:url(#SVGID_00000129184291016971762390000000742281229790304951_);" d="M1904.772,1289.487
					c0,13.311-10.902,24.203-24.226,24.203H570.505c-13.324,0-24.226-10.891-24.226-24.203l-10.901-752.844
					c0-13.311,15.683-39.299,44.425-37.346l1280.317-33.128c16.718-0.432,32.882,6.002,44.721,17.803
					c11.839,11.8,18.316,27.934,17.922,44.637L1904.772,1289.487z"/>
				
					<linearGradient id="SVGID_00000046327856796094356590000011223223922009690794_" gradientUnits="userSpaceOnUse" x1="1839.0918" y1="521.2534" x2="607.0916" y2="1313.2527">
					<stop  offset="0" style="stop-color:#FE7062"/>
					<stop  offset="1" style="stop-color:#FF928E"/>
				</linearGradient>
				<path style="fill:url(#SVGID_00000046327856796094356590000011223223922009690794_);" d="M1880.855,1266.268
					c0,12.606-10.314,22.919-22.919,22.919H602.098c-12.606,0-22.919-10.314-22.919-22.919l-10.287-683.439
					c1.211-41.128,37.269-55.909,59.127-55.036l1227.103-32.921c11.745-0.315,23.105,4.207,31.42,12.508
					c8.316,8.301,12.857,19.652,12.563,31.398L1880.855,1266.268z"/>
				<g style="opacity:0.65;">
					<path style="fill:#FFFFFF;" d="M592.75,940.389c-1.18,0-2.145-0.947-2.162-2.131l-0.814-55.426
						c-0.017-1.194,0.937-2.176,2.131-2.194c1.155-0.064,2.177,0.937,2.194,2.131l0.814,55.426c0.017,1.194-0.937,2.176-2.131,2.194
						C592.772,940.389,592.761,940.389,592.75,940.389z"/>
					<path style="fill:#FFFFFF;" d="M590.756,804.567c-1.18,0-2.145-0.947-2.162-2.131l-3.117-212.28
						c0.065-14.271,4.465-25.672,13.078-33.925c15.65-14.995,40.119-14.242,41.152-14.202l391.838-10.516
						c1.183-0.107,2.188,0.909,2.22,2.104c0.032,1.194-0.91,2.188-2.104,2.22l-391.964,10.516
						c-1.114-0.044-23.81-0.739-38.149,13.003c-7.734,7.411-11.686,17.767-11.745,30.779l3.117,212.239
						c0.018,1.194-0.937,2.177-2.131,2.194C590.777,804.567,590.766,804.567,590.756,804.567z"/>
				</g>
				
					<linearGradient id="SVGID_00000171688925982362174310000010751891167399044026_" gradientUnits="userSpaceOnUse" x1="666.0276" y1="855.0521" x2="1701.8175" y2="855.0521">
					<stop  offset="0" style="stop-color:#E1473D"/>
					<stop  offset="1" style="stop-color:#E9605A"/>
				</linearGradient>
				<path style="fill:url(#SVGID_00000171688925982362174310000010751891167399044026_);" d="M668.171,1133.061
					c1.115-47.89,0.7-471.97-2.048-508.595c-2.748-36.625,54.294-43.495,141.87-47.617c87.576-4.122,826.491-20.44,845.517-21.983
					c42.765-3.468,51.617,60.453,47.339,199.22c-3.214,104.254-8.542,275.994-10.993,354.974
					c-0.73,23.517-19.951,42.175-43.479,42.24c-177.813,0.489-859.319,2.442-904.687,3.793
					C689.48,1156.647,667.729,1152.05,668.171,1133.061z"/>
			</g>
			
				<linearGradient id="SVGID_00000132801386417392217990000006478974072463078824_" gradientUnits="userSpaceOnUse" x1="1184.2433" y1="520.145" x2="1232.244" y2="1244.1497">
				<stop  offset="0" style="stop-color:#09005D"/>
				<stop  offset="1" style="stop-color:#1A0F91"/>
			</linearGradient>
			<path style="fill:url(#SVGID_00000132801386417392217990000006478974072463078824_);" d="M1977.974,1376.185H499.636
				c-18.191,0-33.074-14.883-33.074-33.074l0,0c0-18.191,14.883-33.074,33.074-33.074h1478.339
				c18.191,0,33.074,14.883,33.074,33.074l0,0C2011.048,1361.302,1996.165,1376.185,1977.974,1376.185z"/>
		</g>
		<g>
			<g>
				<rect x="2012.741" y="1290.114" style="fill:#7D97F4;" width="14.027" height="151.697"/>
				<path style="fill:#7D97F4;" d="M2081.184,1444.736h-122.859v-6.09c0-1.679,1.361-3.04,3.04-3.04h116.778
					c1.679,0,3.04,1.361,3.04,3.04V1444.736z"/>
				<path style="fill:#7D97F4;" d="M2099.418,1284.849c0,8.297-6.788,15.085-15.085,15.085h-124.302
					c-8.297,0-15.085-6.788-15.085-15.085v-13.64c0-8.296,6.788-15.085,15.085-15.085h124.302c8.297,0,15.085,6.789,15.085,15.085
					V1284.849z"/>
			</g>
			<g>
				
					<linearGradient id="SVGID_00000061440422416850562010000017747820582266932906_" gradientUnits="userSpaceOnUse" x1="1866.6721" y1="1313.4166" x2="1966.4115" y2="1313.4166">
					<stop  offset="0" style="stop-color:#FF928E"/>
					<stop  offset="1" style="stop-color:#FEB3B1"/>
				</linearGradient>
				<path style="fill:url(#SVGID_00000061440422416850562010000017747820582266932906_);" d="M1916.198,1188.967
					c0,0-20.844,3.231-44.279,18.898c-3.688,2.465-5.711,6.763-5.156,11.165c2.806,22.228,14.344,94.174,52.391,164.444
					c2.006,3.705,2.583,8.019,1.698,12.138l-6.61,30.762l-12.258,11.494h31.575l21.023-56.892l-8.99-2.843
					c-6.97-2.204-11.752-8.615-11.878-15.924l-1.055-61.029c0.9-27.19-16.672-45.95-16.672-45.95l50.425-2.453L1916.198,1188.967z"
					/>
				
					<linearGradient id="SVGID_00000147198750412520640780000000865401809591077278_" gradientUnits="userSpaceOnUse" x1="1927.6986" y1="1378.4066" x2="1913.0286" y2="1603.3478">
					<stop  offset="0" style="stop-color:#4042E2"/>
					<stop  offset="1" style="stop-color:#4F52FF"/>
				</linearGradient>
				<path style="fill:url(#SVGID_00000147198750412520640780000000865401809591077278_);" d="M1889.654,1443.416
					c-2.875,3.763,30.949,8.729,48.038,0.498c0,0,23.689-41.215,23.689-62.436c0,0-1.88-4.327-15.79-3.346
					c0,0-7.954,48.801-16.353,54.268c-8.399,5.466-23.497,0.553-23.497,0.553S1893.897,1437.864,1889.654,1443.416z"/>
				
					<linearGradient id="SVGID_00000000918932411671173140000017776314813256938383_" gradientUnits="userSpaceOnUse" x1="1751.6368" y1="1319.5769" x2="1960.0315" y2="1319.5769">
					<stop  offset="0" style="stop-color:#FF928E"/>
					<stop  offset="1" style="stop-color:#FEB3B1"/>
				</linearGradient>
				<path style="fill:url(#SVGID_00000000918932411671173140000017776314813256938383_);" d="M1960.031,1256.124
					c-0.268-0.464-54.29-6.496-54.29-6.496s1.768,16.426-3.758,39.037c-5.526,22.611-84.842,120.575-84.842,120.575l7.668,26.385
					c-25.714,8.957-48.283,8.163-73.173,2.339l49.466-28.724c0,0,48.236-164.38,77.782-193.705l54.151-18.734L1960.031,1256.124z"/>
				
					<linearGradient id="SVGID_00000020374702463772020970000001768199282937224608_" gradientUnits="userSpaceOnUse" x1="1951.1318" y1="1369.4502" x2="2029.1283" y2="989.9685">
					<stop  offset="0" style="stop-color:#4042E2"/>
					<stop  offset="1" style="stop-color:#4F52FF"/>
				</linearGradient>
				<path style="fill:url(#SVGID_00000020374702463772020970000001768199282937224608_);" d="M2081.184,1160.477
					c0,0,31.125,46.294,33.679,67.411c2.554,21.117-8.979,36.713-41.184,31.113c-106.325-0.769-131.565,39.697-138.715,90.79
					c-0.11,0.785-0.765,1.384-1.556,1.409c-36.942,1.19-74.256-6.547-108.211-23.298c-1.573-0.776-2.203-2.704-1.405-4.266
					c51.85-101.508,12.396-121.571,123.963-151.656C1962.768,1170.175,2081.184,1160.477,2081.184,1160.477z"/>
				
					<linearGradient id="SVGID_00000107569529952295503990000017815169674387460508_" gradientUnits="userSpaceOnUse" x1="1786.1343" y1="1369.1742" x2="1771.4642" y2="1594.1155">
					<stop  offset="0" style="stop-color:#4042E2"/>
					<stop  offset="1" style="stop-color:#4F52FF"/>
				</linearGradient>
				<path style="fill:url(#SVGID_00000107569529952295503990000017815169674387460508_);" d="M1822.316,1426.726
					c0,0,8.953,8.672,2.905,18.321c0,0-70.928,12.572-90.186,6.868c0,0,4.853-9.287,26.538-19.676l-2.454,1.389
					c-2.025,1.554-0.837,4.792,1.711,4.647C1775.119,1437.46,1804.691,1434.843,1822.316,1426.726z"/>
			</g>
			
				<linearGradient id="SVGID_00000099645924657822333740000014908205954631110057_" gradientUnits="userSpaceOnUse" x1="2538.783" y1="504.3905" x2="2099.2007" y2="989.4473">
				<stop  offset="0" style="stop-color:#E1473D"/>
				<stop  offset="1" style="stop-color:#E9605A"/>
			</linearGradient>
			<path style="fill:url(#SVGID_00000099645924657822333740000014908205954631110057_);" d="M1997.011,1154.348
				c0,0-36.245-34.512-54.086-57.372c-9.644-12.356-12.672-28.623-8.212-43.65c8.146-27.442,22.621-55.865,23.941-60.289
				c2.024-6.781,42.664-6.498,42.664-6.498s92.725,42.219,111.392,139.82l-35.288,10.986c0,0-20.881-35.031-41.512-57.303
				c0,0,35.699,47.16,36.957,66.466L1997.011,1154.348z"/>
			
				<linearGradient id="SVGID_00000176749460335957702000000007840507199441560454_" gradientUnits="userSpaceOnUse" x1="1972.3319" y1="951.2853" x2="2003.332" y2="1096.2854">
				<stop  offset="0" style="stop-color:#FF928E"/>
				<stop  offset="1" style="stop-color:#FEB3B1"/>
			</linearGradient>
			<path style="fill:url(#SVGID_00000176749460335957702000000007840507199441560454_);" d="M1953.739,955.142
				c0.424,1.41,11.032,36.574,11.861,37.304c0.83,0.73,23.262,1.936,33.821-5.28l-17.913-37.5L1953.739,955.142z"/>
			
				<linearGradient id="SVGID_00000029040237050332082840000013836307963148127872_" gradientUnits="userSpaceOnUse" x1="1938.1844" y1="921.1031" x2="2021.1844" y2="918.1031">
				<stop  offset="0" style="stop-color:#FF928E"/>
				<stop  offset="1" style="stop-color:#FEB3B1"/>
			</linearGradient>
			<path style="fill:url(#SVGID_00000029040237050332082840000013836307963148127872_);" d="M1971.163,881.284
				c0,0-19.149,8.086-32.17,35.757c-13.02,27.671-3.297,40.447,8.917,42.201c12.213,1.754,30.478,1.487,49.798-16.388
				C2017.027,924.979,1996.056,871.7,1971.163,881.284z"/>
			
				<linearGradient id="SVGID_00000105401335040172579050000010126650944692125624_" gradientUnits="userSpaceOnUse" x1="1949.5203" y1="1259.3661" x2="2013.5203" y2="1168.3661">
				<stop  offset="0" style="stop-color:#FF928E"/>
				<stop  offset="1" style="stop-color:#FEB3B1"/>
			</linearGradient>
			<path style="fill:url(#SVGID_00000105401335040172579050000010126650944692125624_);" d="M1923.172,1156.911l26.629-25.667
				l36.839,15.562c0,0,36.669,5.681,57.656,0c20.987-5.681,20.987-5.681,20.987-5.681l47.426-14.765l7.448,21.051
				c1.891,5.345-0.009,11.278-4.63,14.562c-4.103,2.916-8.913,6.12-11.978,7.461c-6.246,2.732-153.961-1.89-153.961-1.89
				L1923.172,1156.911z"/>
			<g>
				
					<linearGradient id="SVGID_00000108271041573991080010000016653168740677571255_" gradientUnits="userSpaceOnUse" x1="1430.1121" y1="1035.449" x2="1790.4993" y2="1285.3625" gradientTransform="matrix(0.9988 -0.0494 0.0494 0.9988 8.6714 -86.798)">
					<stop  offset="0" style="stop-color:#09005D"/>
					<stop  offset="1" style="stop-color:#1A0F91"/>
				</linearGradient>
				<path style="fill:url(#SVGID_00000108271041573991080010000016653168740677571255_);" d="M2023.947,1169.011
					c-0.118,0.006-0.236,0.009-0.355,0.008l-154.474-0.168c-3.819-0.003-6.911-3.102-6.907-6.921
					c0.004-3.82,3.114-6.976,6.922-6.907l154.474,0.169c3.819,0.003,6.911,3.102,6.907,6.921
					C2030.51,1165.812,2027.6,1168.831,2023.947,1169.011z"/>
				
					<linearGradient id="SVGID_00000032611252863591344190000011617968616212574652_" gradientUnits="userSpaceOnUse" x1="1691.0238" y1="1008.5085" x2="2051.4124" y2="1258.4231">
					<stop  offset="0" style="stop-color:#09005D"/>
					<stop  offset="1" style="stop-color:#1A0F91"/>
				</linearGradient>
				<path style="fill:url(#SVGID_00000032611252863591344190000011617968616212574652_);" d="M1730.252,1028.758h128.647
					c9.49,0,18.128,5.477,22.177,14.06l59.473,126.11h-159.874c-6.116,0-11.611-3.737-13.858-9.425l-46.119-116.696
					C1718.033,1036.065,1723.002,1028.758,1730.252,1028.758z"/>
				
					<linearGradient id="SVGID_00000042707129541584118350000013366991468520072079_" gradientUnits="userSpaceOnUse" x1="1832.2994" y1="1059.038" x2="1722.162" y2="1255.0624">
					<stop  offset="0" style="stop-color:#4042E2"/>
					<stop  offset="1" style="stop-color:#4F52FF"/>
				</linearGradient>
				<path style="fill:url(#SVGID_00000042707129541584118350000013366991468520072079_);" d="M1820.885,1093.419
					c2.788,8.661,0.729,17.073-4.6,18.788c-5.328,1.715-11.908-3.916-14.695-12.577c-2.788-8.662-0.728-17.073,4.6-18.788
					C1811.518,1079.126,1818.098,1084.757,1820.885,1093.419z"/>
			</g>
			<g>
				<g>
					<path style="fill:#7D97F4;" d="M1625.108,1473.35c-0.746,0-1.503-0.153-2.233-0.473c-2.87-1.263-4.196-4.668-2.961-7.604
						l118.641-282.187c1.234-2.935,4.56-4.291,7.432-3.029c2.87,1.263,4.195,4.668,2.961,7.604l-118.641,282.186
						C1629.387,1472.037,1627.3,1473.35,1625.108,1473.35z"/>
					<path style="fill:#7D97F4;" d="M1758.762,1473.35c-2.192,0-4.279-1.311-5.199-3.503l-118.641-282.186
						c-1.235-2.936,0.091-6.341,2.961-7.604c2.868-1.263,6.196,0.092,7.432,3.029l118.641,282.187
						c1.235,2.936-0.091,6.341-2.961,7.604C1760.266,1473.197,1759.508,1473.35,1758.762,1473.35z"/>
					<path style="fill:#7D97F4;" d="M2092.302,1473.35c-0.746,0-1.503-0.153-2.232-0.473c-2.87-1.263-4.196-4.668-2.961-7.604
						l118.641-282.187c1.235-2.935,4.558-4.291,7.432-3.029c2.87,1.263,4.196,4.668,2.961,7.604l-118.641,282.186
						C2096.581,1472.037,2094.495,1473.35,2092.302,1473.35z"/>
					<path style="fill:#7D97F4;" d="M2225.956,1473.35c-2.192,0-4.279-1.311-5.2-3.503l-118.641-282.186
						c-1.235-2.936,0.091-6.341,2.961-7.604c2.868-1.263,6.197,0.092,7.432,3.029l118.641,282.187
						c1.234,2.936-0.092,6.341-2.961,7.604C2227.46,1473.197,2226.701,1473.35,2225.956,1473.35z"/>
				</g>
				<path style="fill:#91B3FA;" d="M2239.853,1174.655c0.362-1.751-0.131-3.563-1.342-4.938c-1.211-1.376-3.015-2.173-4.917-2.173
					h-644.615c-2.503,0-4.833,1.195-6.181,3.172c-1.348,1.976-1.529,4.46-0.479,6.59l6.985,14.172
					c1.6,3.246,5.066,5.324,8.879,5.324h630.988c3.548,0,6.597-2.358,7.271-5.624L2239.853,1174.655z"/>
			</g>
			<path style="fill:#FFFFFF;" d="M2021.241,905.069c-12.439-11.205-16.166-38.136-5.389-48.772
				c27.933-27.556,65.547,22.134,34.519,47.098c-4.827,3.884-10.759,6.713-16.954,6.684
				C2028.775,910.058,2024.676,908.164,2021.241,905.069z"/>
			<path style="fill:#FFFFFF;" d="M1941.79,888.659c-1.47,5.346,3.332,10.311,8.735,9.069c5.44-1.251,12.133-2.38,17.929-2.154
				c39.143,1.525,23.893,26.943,23.893,31.009c0,8.317,8.175-4.329,8.642-1.525c1.017,6.1-11.556,24.471-11.556,24.471
				s32.907-5.154,41.04-17.354c8.134-12.2,5.3-39.657,0.047-49.509c-4.994-9.367-27.167-23.189-38.396-23.24
				C1981.261,859.376,1949.9,859.169,1941.79,888.659z"/>
			
				<linearGradient id="SVGID_00000041274120942270046810000000961881990997908905_" gradientUnits="userSpaceOnUse" x1="1938.598" y1="932.5458" x2="2021.5979" y2="929.5458">
				<stop  offset="0" style="stop-color:#FF928E"/>
				<stop  offset="1" style="stop-color:#FEB3B1"/>
			</linearGradient>
			<path style="fill:url(#SVGID_00000041274120942270046810000000961881990997908905_);" d="M1988.746,932.59
				c0,0,7.305-20.854,17.049-12.549c9.745,8.305-7.92,19.264-14.835,22.813L1988.746,932.59z"/>
		</g>
		<g style="opacity:0.74;">
			<g>
				<path style="fill:#FFFFFF;" d="M723.37,836.213c-0.1,0-0.201-0.006-0.301-0.018l-21.65-2.625
					c-1.06-0.129-1.923-0.917-2.146-1.961l-3.696-17.222c-7.815-2.921-15.1-7.032-21.67-12.228l-16.659,5.756
					c-1.009,0.35-2.13,0.018-2.788-0.823l-13.452-17.164c-0.659-0.841-0.712-2.009-0.131-2.905l9.57-14.8
					c-3.475-7.622-5.726-15.678-6.694-23.965l-15.839-7.704c-0.961-0.467-1.519-1.494-1.39-2.554l2.625-21.648
					c0.128-1.06,0.916-1.923,1.961-2.147l17.222-3.696c2.921-7.815,7.032-15.101,12.227-21.67l-5.755-16.659
					c-0.349-1.01-0.018-2.131,0.823-2.789l17.163-13.451c0.842-0.659,2.01-0.711,2.905-0.132l14.8,9.57
					c7.621-3.474,15.677-5.725,23.965-6.694l7.705-15.839c0.466-0.961,1.49-1.519,2.554-1.391l21.649,2.625
					c1.059,0.128,1.923,0.916,2.146,1.961l3.696,17.221c7.815,2.921,15.101,7.032,21.67,12.227l16.659-5.756
					c1.008-0.349,2.129-0.018,2.789,0.822l13.452,17.164c0.659,0.841,0.712,2.008,0.132,2.905l-9.57,14.8
					c3.475,7.621,5.725,15.678,6.694,23.965l15.839,7.705c0.96,0.466,1.519,1.492,1.391,2.553l-2.625,21.649
					c-0.128,1.06-0.916,1.923-1.96,2.147l-17.222,3.695c-2.921,7.816-7.032,15.101-12.227,21.67l5.755,16.659
					c0.349,1.01,0.018,2.13-0.822,2.789l-17.165,13.452c-0.839,0.658-2.006,0.712-2.904,0.132l-14.801-9.571
					c-7.62,3.475-15.677,5.725-23.964,6.694l-7.705,15.839C725.198,835.672,724.318,836.213,723.37,836.213z M674.298,799.886
					l0.435,0.349c6.658,5.34,14.081,9.528,22.062,12.448l0.523,0.192l3.93,18.31c0.043,0.202,0.21,0.354,0.415,0.379l21.649,2.625
					c0.203,0.025,0.403-0.083,0.492-0.268l8.191-16.84l0.554-0.061c8.449-0.928,16.657-3.22,24.398-6.814l0.506-0.235l15.735,10.175
					c0.172,0.112,0.398,0.101,0.56-0.025l17.165-13.452c0.162-0.127,0.226-0.343,0.159-0.538l-6.119-17.711l0.349-0.435
					c5.339-6.657,9.527-14.08,12.448-22.062l0.191-0.524l18.31-3.929c0.202-0.043,0.354-0.209,0.378-0.414l2.625-21.649
					c0.025-0.205-0.083-0.403-0.268-0.493l-16.841-8.191l-0.061-0.555c-0.928-8.448-3.221-16.657-6.814-24.397l-0.234-0.506
					l10.174-15.735c0.112-0.173,0.102-0.398-0.025-0.561l-13.452-17.164c-0.127-0.162-0.342-0.226-0.538-0.159l-17.711,6.12
					l-0.435-0.349c-6.657-5.339-14.079-9.528-22.062-12.448l-0.523-0.192l-3.929-18.31c-0.043-0.201-0.21-0.353-0.414-0.378
					l-21.649-2.625c-0.205-0.026-0.403,0.083-0.493,0.268l-8.191,16.84l-0.554,0.061c-8.449,0.928-16.658,3.221-24.398,6.814
					l-0.506,0.235l-15.735-10.175c-0.172-0.112-0.397-0.101-0.56,0.026l-17.164,13.452c-0.162,0.127-0.226,0.343-0.159,0.538
					l6.119,17.711l-0.349,0.435c-5.339,6.657-9.527,14.079-12.448,22.061l-0.192,0.524l-18.31,3.929
					c-0.202,0.043-0.354,0.21-0.379,0.414v0l-2.625,21.649c-0.025,0.205,0.083,0.403,0.268,0.493l16.84,8.192l0.061,0.554
					c0.927,8.448,3.221,16.656,6.815,24.397l0.235,0.506l-10.174,15.735c-0.113,0.173-0.102,0.398,0.025,0.561l13.452,17.164
					c0.127,0.162,0.342,0.226,0.538,0.159L674.298,799.886z M630.15,716.475h0.011H630.15z M724.386,792.209
					c-2.178,0-4.367-0.132-6.564-0.398c-9.651-1.17-18.788-4.926-26.424-10.862c-0.44-0.342-0.52-0.977-0.178-1.418
					c0.343-0.441,0.978-0.52,1.418-0.178c7.347,5.711,16.139,9.325,25.427,10.451c28.256,3.427,54.022-16.771,57.448-45.022
					c3.425-28.251-16.772-54.022-45.023-57.447c-28.253-3.426-54.021,16.771-57.447,45.022c-0.443,3.655-0.499,7.352-0.165,10.989
					c0.051,0.556-0.358,1.048-0.914,1.099c-0.552,0.054-1.047-0.358-1.098-0.914c-0.347-3.779-0.289-7.62,0.172-11.417
					c3.56-29.357,30.342-50.342,59.697-46.785c29.357,3.56,50.344,30.339,46.785,59.697c-1.724,14.221-8.884,26.92-20.159,35.756
					C747.826,788.254,736.312,792.209,724.386,792.209z"/>
				<path style="fill:#FFFFFF;" d="M723.898,759.211c-2.476,0-4.956-0.457-7.335-1.375c-10.482-4.041-15.723-15.857-11.683-26.339
					l0,0c4.041-10.482,15.857-15.723,26.34-11.682c10.482,4.041,15.723,15.857,11.682,26.339c-1.958,5.078-5.775,9.09-10.75,11.296
					C729.508,758.622,726.705,759.211,723.898,759.211z M706.766,732.224c-3.64,9.443,1.081,20.086,10.523,23.727
					c4.574,1.763,9.561,1.64,14.043-0.348c4.482-1.988,7.921-5.601,9.684-10.175c3.64-9.443-1.081-20.086-10.523-23.727
					C721.05,718.06,710.407,722.781,706.766,732.224L706.766,732.224z"/>
			</g>
			<g>
				<path style="fill:#FFFFFF;" d="M879.002,696.588c-0.498,0-0.985-0.216-1.32-0.612l-5.289-6.254
					c-3.858,0.487-7.741,0.401-11.559-0.258l-5.564,6.004c-0.503,0.541-1.292,0.703-1.966,0.407l-9.596-4.233
					c-0.674-0.297-1.086-0.991-1.026-1.725l0.682-8.158c-3.062-2.375-5.743-5.184-7.984-8.361l-8.185,0.311
					c-0.727,0.025-1.412-0.415-1.678-1.103l-3.793-9.778c-0.266-0.688-0.067-1.469,0.496-1.945l6.254-5.29
					c-0.488-3.858-0.401-7.74,0.258-11.558l-6.004-5.565c-0.54-0.501-0.704-1.29-0.407-1.965l4.233-9.597
					c0.297-0.675,0.994-1.087,1.726-1.025l8.157,0.681c2.374-3.06,5.182-5.742,8.361-7.984l-0.311-8.185
					c-0.027-0.737,0.416-1.411,1.102-1.677l9.78-3.793c0.686-0.266,1.469-0.068,1.945,0.496l5.289,6.253
					c3.858-0.487,7.74-0.401,11.559,0.258l5.564-6.004c0.5-0.541,1.291-0.704,1.965-0.407l9.597,4.233
					c0.675,0.297,1.086,0.991,1.026,1.725l-0.682,8.158c3.062,2.375,5.744,5.184,7.984,8.361l8.185-0.311
					c0.742-0.023,1.41,0.414,1.677,1.102l3.793,9.779c0.266,0.688,0.067,1.469-0.495,1.945l-6.254,5.29
					c0.488,3.858,0.401,7.74-0.258,11.558l6.003,5.565c0.54,0.501,0.704,1.291,0.407,1.965l-4.233,9.597
					c-0.296,0.674-0.986,1.087-1.725,1.025l-8.158-0.681c-2.376,3.061-5.184,5.744-8.361,7.984l0.311,8.185
					c0.027,0.738-0.416,1.411-1.103,1.677l-9.778,3.793C879.423,696.549,879.211,696.588,879.002,696.588z M873.217,687.568
					l5.872,6.943l9.391-3.642l-0.346-9.087l0.461-0.315c3.34-2.285,6.263-5.076,8.688-8.297l0.335-0.445l9.056,0.756l4.065-9.216
					l-6.665-6.178l0.102-0.548c0.742-3.961,0.833-8.002,0.268-12.01l-0.078-0.552l6.943-5.873l-3.642-9.39l-9.088,0.345l-0.315-0.46
					c-2.285-3.339-5.076-6.263-8.296-8.688l-0.446-0.336l0.756-9.057l-9.215-4.065l-6.178,6.665l-0.548-0.103
					c-3.962-0.743-8.002-0.833-12.011-0.269l-0.552,0.078l-5.872-6.943l-9.391,3.642l0.345,9.087l-0.461,0.315
					c-3.341,2.286-6.264,5.078-8.688,8.297l-0.335,0.446l-9.057-0.757l-4.065,9.216l6.666,6.177l-0.102,0.548
					c-0.742,3.962-0.833,8.002-0.269,12.01l0.078,0.552l-6.943,5.872l3.642,9.39l9.087-0.345l0.315,0.46
					c2.286,3.34,5.077,6.263,8.297,8.688l0.446,0.336l-0.756,9.056l9.215,4.065l6.178-6.665l0.548,0.103
					c3.962,0.743,8.003,0.833,12.011,0.269L873.217,687.568z M828.403,627.721l-0.001,0.001L828.403,627.721z M827.478,627.314
					h0.011H827.478z M867.703,676.967c-3.609,0-7.212-0.752-10.613-2.253c-4.366-1.925-8.121-4.992-10.86-8.868
					c-0.323-0.456-0.214-1.086,0.242-1.408c0.456-0.322,1.086-0.214,1.408,0.242c2.528,3.577,5.995,6.407,10.026,8.185
					c5.939,2.619,12.541,2.769,18.592,0.422c6.051-2.347,10.826-6.91,13.445-12.848c2.619-5.939,2.769-12.542,0.423-18.593
					c-2.347-6.051-6.91-10.826-12.848-13.445c-5.938-2.619-12.54-2.769-18.592-0.422c-6.051,2.347-10.826,6.91-13.445,12.848
					c-0.7,1.587-1.231,3.245-1.578,4.928c-0.113,0.546-0.643,0.897-1.193,0.786c-0.547-0.113-0.898-0.647-0.786-1.194
					c0.375-1.823,0.95-3.618,1.707-5.336c2.837-6.432,8.009-11.374,14.563-13.917c6.554-2.542,13.706-2.38,20.138,0.457
					c6.432,2.837,11.375,8.009,13.917,14.563s2.38,13.706-0.457,20.139c-2.837,6.432-8.009,11.374-14.563,13.916
					C874.14,676.369,870.919,676.967,867.703,676.967z"/>
			</g>
		</g>
		<g>
			
				<linearGradient id="SVGID_00000176014434270891967240000004563311547661365949_" gradientUnits="userSpaceOnUse" x1="643.3717" y1="568.4034" x2="765.3717" y2="882.4031">
				<stop  offset="0" style="stop-color:#4042E2"/>
				<stop  offset="1" style="stop-color:#4F52FF"/>
			</linearGradient>
			<path style="fill:url(#SVGID_00000176014434270891967240000004563311547661365949_);" d="M735.613,449.871l17.776,64.058
				c2.413,8.695,0.948,18.01-4.044,25.528c-12.536,18.879-43.184,52.97-108.163,70.361c-65.996,17.662-103.357-0.509-119.435-12.481
				c-5.822-4.335-10.053-10.457-12.054-17.434l-19.457-67.839L735.613,449.871z"/>
			
				<linearGradient id="SVGID_00000150091968613184369620000002229835021004402824_" gradientUnits="userSpaceOnUse" x1="534.4527" y1="355.1799" x2="646.4527" y2="529.1799">
				<stop  offset="0" style="stop-color:#4042E2"/>
				<stop  offset="1" style="stop-color:#4F52FF"/>
			</linearGradient>
			<path style="fill:url(#SVGID_00000150091968613184369620000002229835021004402824_);" d="M594.923,367.419l184.84,51.778
				c9.518,2.666,12.216,14.867,4.704,21.291c-36.64,31.336-119.911,104.326-151.449,146.716c-3.374,4.535-9.402,6.182-14.624,4.02
				L431.37,513.808c-8.46-3.502-10.314-14.663-3.433-20.704c36.285-31.857,128.624-111.617,158.64-125.084
				C589.201,366.843,592.154,366.644,594.923,367.419z"/>
			
				<linearGradient id="SVGID_00000044153671722969857020000014602801673986876341_" gradientUnits="userSpaceOnUse" x1="569.0656" y1="374.3559" x2="501.0655" y2="746.3546">
				<stop  offset="0" style="stop-color:#09005D"/>
				<stop  offset="1" style="stop-color:#1A0F91"/>
			</linearGradient>
			<path style="fill:url(#SVGID_00000044153671722969857020000014602801673986876341_);" d="M598.922,462.906
				c0,0-98.543,62.158-106.052,76.359c-7.509,14.201,7.607,78.756,7.607,78.756c-15.514,54.638-17.811,113.969,8.394,145.008
				c0,0,32.307-71.849,17.874-102.132C512.313,630.614,506.75,618.2,506.75,618.2s-12.626-68.818-8.633-78.656
				C498.117,539.544,607.285,466.842,598.922,462.906z"/>
			<path style="fill:#91B3FA;" d="M754.889,436.341l-94.598,93.314l-23.65,23.328l-5.912,5.832l-2.951,2.901
				c-0.922,0.905-1.964,1.68-3.059,2.36c-4.407,2.711-10.024,3.353-14.95,1.624l-62.997-21.104
				c-0.497-0.167-1.036,0.101-1.202,0.599c-0.166,0.495,0.099,1.031,0.592,1.2l62.836,21.581c5.537,1.992,11.975,1.331,17.031-1.735
				c1.259-0.768,2.458-1.649,3.521-2.676l2.993-2.898l5.956-5.787l23.826-23.149l95.302-92.594c0.775-0.753,0.793-1.992,0.04-2.767
				c-0.753-0.775-1.992-0.793-2.767-0.04L754.889,436.341z"/>
			<path style="fill:#91B3FA;" d="M507.688,651.221l0.187,0.199l0.219,0.259l0.443,0.525l0.851,1.146
				c0.562,0.773,1.054,1.622,1.588,2.429l1.404,2.582c0.437,0.88,0.819,1.793,1.234,2.688c0.436,0.886,0.759,1.825,1.096,2.759
				c0.331,0.935,0.698,1.858,1.001,2.804l0.805,2.879c0.26,0.962,0.574,1.912,0.735,2.901l0.587,2.944
				c0.187,0.984,0.427,1.958,0.515,2.96c0.235,1.993,0.504,3.985,0.715,5.985l0.29,6.037c0.019,0.503,0.06,1.007,0.062,1.511
				l-0.035,1.514l-0.07,3.03c0.034,4.047-0.519,8.07-0.845,12.109c-0.066,1.012-0.231,2.013-0.394,3.014l-0.473,3.007
				c-0.325,2.003-0.61,4.014-0.967,6.013c-0.896,3.963-1.708,7.949-2.673,11.901l-3.313,11.758l-0.01,0.035
				c-0.102,0.362,0.109,0.737,0.47,0.839c0.356,0.1,0.725-0.103,0.834-0.453l3.641-11.743c1.076-3.955,2.001-7.956,3.01-11.937
				c0.414-2.011,0.756-4.038,1.138-6.058l0.558-3.033c0.191-1.01,0.384-2.021,0.479-3.047c0.439-4.092,1.104-8.168,1.181-12.303
				l0.152-3.094l0.075-1.547c0.012-0.516-0.016-1.034-0.022-1.551l-0.138-6.209c-0.162-2.066-0.385-4.132-0.577-6.2
				c-0.066-1.038-0.286-2.058-0.454-3.086l-0.532-3.08c-0.143-1.034-0.443-2.038-0.689-3.054l-0.768-3.042
				c-0.293-1.005-0.654-1.994-0.979-2.992c-0.332-0.997-0.65-1.999-1.089-2.962c-0.417-0.97-0.802-1.953-1.248-2.913l-1.45-2.839
				c-0.565-0.914-1.078-1.848-1.693-2.744l-0.943-1.338l-0.528-0.66l-0.269-0.332l-0.33-0.366c-0.724-0.802-1.961-0.866-2.763-0.142
				c-0.802,0.724-0.866,1.961-0.142,2.763c0.007,0.008,0.014,0.016,0.022,0.024L507.688,651.221z"/>
			<path style="fill:#91B3FA;" d="M504.679,676.651l0.005,3.846l-0.033,4.335l-0.113,8.687l-0.298,17.385l-0.701,34.775
				c-0.014,0.588,0.451,1.074,1.038,1.088c0.578,0.013,1.059-0.441,1.087-1.015l1.594-34.754l0.745-17.383l0.337-8.699l0.145-4.359
				l0.054-2.197l0.022-1.105c-0.003-0.475-0.036-1.037-0.083-1.547c-0.098-1.047-1.025-1.816-2.072-1.719
				c-0.986,0.092-1.725,0.919-1.727,1.889L504.679,676.651z"/>
		</g>
		<g>
			<g>
				<path style="opacity:0.69;fill:#FFFFFF;" d="M1819.572,644.097l299.246,4.058c11.524,0.156,20.609,8.664,20.045,18.772
					l-4.983,89.351c-0.532,9.533-9.49,17.023-20.36,17.023h-294.263c-11.258,0-20.385-8.014-20.385-17.898v-93.409
					C1798.872,652,1808.192,643.943,1819.572,644.097z"/>
				<g>
					
						<ellipse transform="matrix(0.9727 -0.2322 0.2322 0.9727 -49.2793 499.1388)" style="fill:#FFFFFF;" cx="2096.044" cy="458.942" rx="48.314" ry="48.314"/>
					
						<ellipse transform="matrix(0.3771 -0.9262 0.9262 0.3771 805.7598 2115.9548)" style="fill:#FFFFFF;" cx="1975.97" cy="458.942" rx="48.314" ry="48.314"/>
					
						<ellipse transform="matrix(0.7071 -0.7071 0.7071 0.7071 217.9401 1447.2002)" style="fill:#FFFFFF;" cx="1855.895" cy="460.523" rx="48.314" ry="48.314"/>
					<g>
						
							<linearGradient id="SVGID_00000101786637340730004960000011727739603795670719_" gradientUnits="userSpaceOnUse" x1="2328.0806" y1="346.0454" x2="1446.0206" y2="788.5919">
							<stop  offset="0" style="stop-color:#4042E2"/>
							<stop  offset="1" style="stop-color:#4F52FF"/>
						</linearGradient>
						<path style="fill:url(#SVGID_00000101786637340730004960000011727739603795670719_);" d="M2067.336,448.731
							c-1.495,3.636-2.325,7.617-2.325,11.792c0,17.139,13.894,31.034,31.033,31.034c17.139,0,31.033-13.894,31.033-31.034
							c0-17.139-13.894-31.034-31.033-31.034c-0.525,0-1.047,0.014-1.565,0.04v-7.867c0.52-0.02,1.041-0.034,1.565-0.034
							c21.481,0,38.894,17.414,38.894,38.894c0,21.481-17.414,38.895-38.894,38.895s-38.895-17.414-38.895-38.895
							c0-5.289,1.058-10.331,2.97-14.928L2067.336,448.731z"/>
						
							<linearGradient id="SVGID_00000154422439599562162730000011669515073080961936_" gradientUnits="userSpaceOnUse" x1="2304.0403" y1="298.1277" x2="1421.9788" y2="740.6748">
							<stop  offset="0" style="stop-color:#4042E2"/>
							<stop  offset="1" style="stop-color:#4F52FF"/>
						</linearGradient>
						<path style="fill:url(#SVGID_00000154422439599562162730000011669515073080961936_);" d="M1959.961,486.779
							c4.788,3.022,10.455,4.777,16.535,4.777c17.139,0,31.034-13.894,31.034-31.034c0-17.139-13.894-31.034-31.034-31.034
							c-0.525,0-1.047,0.014-1.565,0.04v-7.867c0.519-0.02,1.041-0.034,1.565-0.034c21.481,0,38.895,17.414,38.895,38.894
							c0,21.481-17.414,38.895-38.895,38.895c-7.497,0-14.497-2.123-20.435-5.798L1959.961,486.779z"/>
						
							<linearGradient id="SVGID_00000093875777995480381320000008706955337962383257_" gradientUnits="userSpaceOnUse" x1="2279.7405" y1="249.6945" x2="1397.6746" y2="692.244">
							<stop  offset="0" style="stop-color:#4042E2"/>
							<stop  offset="1" style="stop-color:#4F52FF"/>
						</linearGradient>
						<path style="fill:url(#SVGID_00000093875777995480381320000008706955337962383257_);" d="M1829.998,477.971
							c5.585,8.199,14.995,13.585,25.664,13.585c17.139,0,31.033-13.894,31.033-31.034c0-17.139-13.894-31.034-31.033-31.034
							c-0.525,0-1.047,0.014-1.565,0.04v-7.867c0.519-0.02,1.041-0.034,1.565-0.034c21.481,0,38.895,17.414,38.895,38.894
							c0,21.481-17.414,38.895-38.895,38.895c-13.289,0-25.019-6.666-32.035-16.834L1829.998,477.971z"/>
					</g>
				</g>
				<g style="opacity:0.69;">
					<path style="fill:#FFFFFF;" d="M2056.678,527.721h78.732c4.942,0,8.948,4.006,8.948,8.948c0,4.942-4.006,8.948-8.948,8.948
						h-78.732c-4.942,0-8.948-4.006-8.948-8.948C2047.73,531.728,2051.736,527.721,2056.678,527.721z"/>
					<path style="fill:#FFFFFF;" d="M1936.604,527.721h78.732c4.942,0,8.948,4.006,8.948,8.948c0,4.942-4.006,8.948-8.948,8.948
						h-78.732c-4.942,0-8.948-4.006-8.948-8.948C1927.656,531.728,1931.662,527.721,1936.604,527.721z"/>
					<path style="fill:#FFFFFF;" d="M1895.261,545.617h-78.732c-4.942,0-8.948-4.006-8.948-8.948c0-4.942,4.006-8.948,8.948-8.948
						h78.732c4.942,0,8.948,4.006,8.948,8.948C1904.209,541.611,1900.203,545.617,1895.261,545.617z"/>
					<path style="fill:#FFFFFF;" d="M2056.678,555.559h78.732c4.942,0,8.948,4.006,8.948,8.948v52.693
						c0,4.942-4.006,8.948-8.948,8.948h-78.732c-4.942,0-8.948-4.006-8.948-8.948v-52.693
						C2047.73,559.566,2051.736,555.559,2056.678,555.559z"/>
					<path style="fill:#FFFFFF;" d="M1936.604,555.559h78.732c4.942,0,8.948,4.006,8.948,8.948v52.693
						c0,4.942-4.006,8.948-8.948,8.948h-78.732c-4.942,0-8.948-4.006-8.948-8.948v-52.693
						C1927.656,559.566,1931.662,555.559,1936.604,555.559z"/>
					<path style="fill:#FFFFFF;" d="M1816.529,555.559h78.732c4.942,0,8.948,4.006,8.948,8.948v52.693
						c0,4.942-4.007,8.948-8.948,8.948h-78.732c-4.942,0-8.948-4.006-8.948-8.948v-52.693
						C1807.581,559.566,1811.588,555.559,1816.529,555.559z"/>
				</g>
			</g>
			<g>
				
					<linearGradient id="SVGID_00000061470752811731429510000012083413364291728810_" gradientUnits="userSpaceOnUse" x1="1996.4437" y1="81.2261" x2="1886.949" y2="415.7095">
					<stop  offset="0" style="stop-color:#4042E2"/>
					<stop  offset="1" style="stop-color:#4F52FF"/>
				</linearGradient>
				<path style="fill:url(#SVGID_00000061470752811731429510000012083413364291728810_);" d="M1703.931,221.64l439.387-5.228
					c8.616-0.103,10.644,6.761,10.625,10.543l0.967,144.04c-0.019,3.807-3.863,7.001-12.534,6.957
					c-79.454-0.407-426.037-1.91-441.605-1.5c-15.385,0.405-9.205-113.788-7.142-143.135
					C1693.883,229.688,1695.664,221.738,1703.931,221.64z"/>
				<g>
					<g>
						<path style="fill:#91B3FA;" d="M2142.808,373.248l-0.068-0.001c-63.167-0.215-381.217-1.283-439.546-1.131l-0.32,0.001
							l-0.137-0.289c-5.627-11.849-5.914-60.265-0.732-123.346c0.068-0.815,1.256-1.117,2.252-1.128l439.388-5
							c0.727-0.007,1.183,0.117,1.46,0.222c0.705,0.263,0.85,0.664,0.848,0.954l-0.9,128.529
							C2145.047,372.868,2143.922,373.24,2142.808,373.248z M1717.924,371.092c84.317,0,365.805,0.944,424.82,1.145l0.065,0.001
							c0.648-0.005,1.097-0.167,1.235-0.27l0.899-128.355c-0.034-0.021-0.093-0.053-0.191-0.09
							c-0.198-0.074-0.529-0.164-1.096-0.157l-439.386,5c-0.797,0.009-1.224,0.221-1.289,0.298
							c-5.094,62.312-4.889,110.255,0.537,122.443C1707.305,371.096,1712.156,371.092,1717.924,371.092z"/>
					</g>
					<g>
						<path style="fill:#91B3FA;" d="M1919.814,280.813c-1.792-1.855-4.261-2.901-6.84-2.897l-174.668,0.307
							c-2.56,0.004-5.009,1.043-6.792,2.881c-1.783,1.837-2.747,4.317-2.675,6.876l1.721,60.593
							c0.146,5.122,4.332,9.203,9.456,9.218l170.701,0.502c5.116,0.015,9.32-4.028,9.507-9.141l2.245-61.402
							C1922.562,285.172,1921.606,282.668,1919.814,280.813z"/>
						<path style="fill:#BDD0FB;" d="M1947.33,256.077l-219.774,2.143c-2.471,0.024-4.156,2.552-4.156,5.643v0.1
							c0,3.091,1.723,5.601,4.194,5.608l219.928,0.65c3.86,0.012,6.926-3.138,6.913-7.032l-0.037-0.126
							C1954.385,259.167,1951.19,256.039,1947.33,256.077z"/>
						<path style="fill:#91B3FA;" d="M2124.777,281.593c-1.168-1.216-3.046-1.915-4.732-1.921l-176.177-0.62
							c-1.73-0.006-3.45,0.706-4.632,1.968c-1.182,1.263-1.818,2.959-1.698,4.685l0.23,3.525c0.229,3.277,2.957,5.811,6.243,5.788
							l176.265-1.213c3.331-0.024,6.583-2.647,6.705-5.976l0.061-1.678C2127.103,284.467,2125.945,282.809,2124.777,281.593z"/>
						<path style="fill:#91B3FA;" d="M2123.9,305.578c-1.168-1.216-3.047-1.915-4.733-1.921l-176.177-0.62
							c-1.729-0.006-3.45,0.706-4.632,1.968c-1.182,1.263-1.818,2.959-1.698,4.685l0.23,3.525c0.229,3.277,2.958,5.811,6.243,5.788
							l176.265-1.213c3.331-0.024,6.583-2.647,6.704-5.976l0.062-1.678C2126.226,308.452,2125.067,306.794,2123.9,305.578z"/>
						<path style="fill:#91B3FA;" d="M2123.022,329.564c-1.168-1.216-3.046-1.915-4.733-1.921l-176.177-0.62
							c-1.73-0.006-3.45,0.706-4.632,1.968c-1.182,1.263-1.818,2.959-1.698,4.685l0.23,3.525c0.229,3.277,2.958,5.811,6.243,5.788
							l176.265-1.213c3.331-0.024,6.583-2.647,6.704-5.976l0.062-1.678C2125.349,332.437,2124.19,330.78,2123.022,329.564z"/>
					</g>
					<g>
						<path style="fill:#BDD0FB;" d="M2086.258,229.353c-0.041,4.621-4.078,8.346-8.7,8.323l-6.281-0.033
							c-4.621-0.023-8.794-3.792-8.753-8.414l0.002-0.206c0.041-4.621,4.07-8.347,8.692-8.324l6.285,0.033
							c4.621,0.023,8.799,3.792,8.757,8.414L2086.258,229.353z"/>
						<path style="fill:#BDD0FB;" d="M2112.629,229.484c-0.041,4.621-3.852,8.348-8.473,8.325l-5.735-0.028
							c-4.622-0.023-8.249-3.788-8.208-8.409l0.002-0.206c0.042-4.621,3.638-8.35,8.259-8.327l5.842,0.029
							c4.621,0.023,8.356,3.788,8.314,8.41L2112.629,229.484z"/>
						<path style="fill:#BDD0FB;" d="M2139,229.614c-0.041,4.621-3.625,8.351-8.247,8.327l-5.848-0.029
							c-4.621-0.023-8.362-3.788-8.321-8.41l0.002-0.206c0.041-4.621,3.865-8.348,8.486-8.325l5.728,0.028
							c4.622,0.023,8.242,3.788,8.201,8.409L2139,229.614z"/>
					</g>
				</g>
				<g>
					
						<linearGradient id="SVGID_00000051366165823036069810000005229683394398505631_" gradientUnits="userSpaceOnUse" x1="1690.6512" y1="167.8855" x2="2155.2402" y2="167.8855">
						<stop  offset="0" style="stop-color:#4042E2"/>
						<stop  offset="1" style="stop-color:#4F52FF"/>
					</linearGradient>
					<path style="fill:url(#SVGID_00000051366165823036069810000005229683394398505631_);" d="M2144.26,192.135h-442.628
						c-6.039,0-10.98-4.941-10.98-10.98v-26.538c0-6.039,4.941-10.98,10.98-10.98h442.628c6.039,0,10.98,4.941,10.98,10.98v26.538
						C2155.24,187.193,2150.299,192.135,2144.26,192.135z"/>
					<g>
						<path style="fill:#BDD0FB;" d="M2073.112,167.021c-0.052,5.865-5.176,10.593-11.042,10.564l-7.971-0.042
							c-5.865-0.029-11.162-4.813-11.109-10.678l0.002-0.261c0.052-5.865,5.166-10.593,11.031-10.564l7.977,0.042
							c5.865,0.029,11.167,4.813,11.115,10.678L2073.112,167.021z"/>
						<path style="fill:#BDD0FB;" d="M2106.581,167.187c-0.052,5.865-4.889,10.596-10.754,10.566l-7.278-0.036
							c-5.865-0.029-10.469-4.807-10.417-10.672l0.002-0.262c0.052-5.865,4.617-10.598,10.482-10.569l7.414,0.037
							c5.865,0.029,10.605,4.808,10.552,10.673L2106.581,167.187z"/>
						<path style="fill:#BDD0FB;" d="M2140.05,167.352c-0.052,5.865-4.601,10.598-10.466,10.569l-7.422-0.037
							c-5.865-0.029-10.613-4.808-10.56-10.673l0.002-0.262c0.052-5.865,4.904-10.595,10.77-10.566l7.271,0.036
							c5.865,0.029,10.461,4.807,10.408,10.672L2140.05,167.352z"/>
						<path style="fill:#BDD0FB;" d="M2026.378,174.89H1894.19c-3.829,0-6.962-3.133-6.962-6.962v-1.452
							c0-3.829,3.133-6.962,6.962-6.962h132.188c3.829,0,6.962,3.133,6.962,6.962v1.452
							C2033.34,171.757,2030.207,174.89,2026.378,174.89z"/>
					</g>
				</g>
			</g>
		</g>
		
			<linearGradient id="SVGID_00000020378556087699193370000016966046615628953252_" gradientUnits="userSpaceOnUse" x1="902.0775" y1="1295.1243" x2="900.2732" y2="1297.3822">
			<stop  offset="0" style="stop-color:#CB236D"/>
			<stop  offset="1" style="stop-color:#4C246D"/>
		</linearGradient>
		<polygon style="fill:url(#SVGID_00000020378556087699193370000016966046615628953252_);" points="900.891,1295.949 
			901.258,1296.773 901.946,1295.949 		"/>
		<g>
			<g>
				
					<linearGradient id="SVGID_00000080173081535528665580000004503355636256515976_" gradientUnits="userSpaceOnUse" x1="1433.1803" y1="444.5014" x2="487.1412" y2="1628.3716">
					<stop  offset="0" style="stop-color:#4042E2"/>
					<stop  offset="1" style="stop-color:#4F52FF"/>
				</linearGradient>
				<path style="fill:url(#SVGID_00000080173081535528665580000004503355636256515976_);" d="M1263.396,829.429
					c-9.968-25.474-24.81-45.229-41.104-64.711c-12.272-14.674-31.379-21.768-50.274-18.783
					c-88.893,14.044-211.216,26.275-265.585,33.125c-18.986,2.391-36.351,11.949-48.863,26.429
					c-46.654,53.99-145.518,196.147-50.656,345.783c0.992,1.566,2.73,2.509,4.584,2.509h69.031c2.149-3.321,2.825-4.365,4.975-7.685
					c-20.074-44.718-17.271-93.721,5.193-147.513c1.958-4.689,8.708-4.389,10.233,0.458l0,0
					c17.552,55.605,27.978,106.605,34.16,150.063c0.381,2.681,2.668,4.677,5.377,4.677h210.868c2.642,0,4.887-1.901,5.344-4.503
					c19.456-110.918,71.49-230.778,88.547-268.342c3.39-7.464,9.362-13.567,16.833-16.946c2.328-1.054,4.626-2.141,6.903-3.232
					c2.416-1.157,3.621-3.891,2.867-6.461C1269.371,845.926,1266.596,837.605,1263.396,829.429z"/>
				
					<linearGradient id="SVGID_00000082366149170207330430000003307970211689606588_" gradientUnits="userSpaceOnUse" x1="2068.2017" y1="94.1473" x2="1053.934" y2="1525.1707" gradientTransform="matrix(0.9849 -0.1731 0.1731 0.9849 -223.2522 546.6218)">
					<stop  offset="0" style="stop-color:#09005D"/>
					<stop  offset="1" style="stop-color:#1A0F91"/>
				</linearGradient>
				<path style="fill:url(#SVGID_00000082366149170207330430000003307970211689606588_);" d="M1450.972,715.004
					c-4.89-4.757-4.665-12.679,0.487-17.151l608.743-543.146c1.707-1.523,4.162-1.872,6.227-0.884l0,0
					c3.622,1.733,4.346,6.578,1.39,9.296L1466.98,715.232C1462.428,719.414,1455.402,719.314,1450.972,715.004L1450.972,715.004z"/>
				
					<linearGradient id="SVGID_00000052086981331275912160000017276048903990820737_" gradientUnits="userSpaceOnUse" x1="770.0267" y1="1050.8312" x2="182.0271" y2="1786.8311">
					<stop  offset="0" style="stop-color:#4042E2"/>
					<stop  offset="1" style="stop-color:#4F52FF"/>
				</linearGradient>
				<path style="fill:url(#SVGID_00000052086981331275912160000017276048903990820737_);" d="M887.647,971.493
					c-18.005-51.821-14.247-111.898-13.034-126.024c0.145-1.691,1.657-2.921,3.343-2.729l0,0c1.62,0.185,2.799,1.62,2.659,3.244
					c-1.177,13.647-4.924,72.718,12.712,123.49c0.543,1.562-0.249,3.27-1.802,3.837l-0.004,0.001
					C889.949,973.888,888.196,973.075,887.647,971.493z"/>
				<g>
					
						<linearGradient id="SVGID_00000116913991902321835640000011302945648585181078_" gradientUnits="userSpaceOnUse" x1="1562.5883" y1="532.7126" x2="594.5504" y2="1744.1121">
						<stop  offset="0" style="stop-color:#4042E2"/>
						<stop  offset="1" style="stop-color:#4F52FF"/>
					</linearGradient>
					<path style="fill:url(#SVGID_00000116913991902321835640000011302945648585181078_);" d="M1463.892,775.223
						c-84.598,30.918-274.439-29.23-274.439-29.23l-2.838,142.167c144.362,45.643,238.302,32.353,299.39-5.952
						C1489.804,838.672,1476.718,800.78,1463.892,775.223z"/>
					
						<linearGradient id="SVGID_00000114071212475518164130000013975988323470277567_" gradientUnits="userSpaceOnUse" x1="1380.4254" y1="984.8896" x2="1596.4248" y2="656.891">
						<stop  offset="0" style="stop-color:#FF928E"/>
						<stop  offset="1" style="stop-color:#FEB3B1"/>
					</linearGradient>
					<path style="fill:url(#SVGID_00000114071212475518164130000013975988323470277567_);" d="M1598.584,623.212l-35.404-7.012
						c0,0-9.655,112.648-88.509,154.29c-3.379,1.785-6.99,3.348-10.779,4.733c12.826,25.556,25.911,63.449,22.113,106.985
						C1610.14,804.37,1598.584,623.212,1598.584,623.212z"/>
					
						<linearGradient id="SVGID_00000155868335230996168350000003139846340693118623_" gradientUnits="userSpaceOnUse" x1="1358.3115" y1="970.3278" x2="1574.3119" y2="642.3278">
						<stop  offset="0" style="stop-color:#FF928E"/>
						<stop  offset="1" style="stop-color:#FEB3B1"/>
					</linearGradient>
					<path style="fill:url(#SVGID_00000155868335230996168350000003139846340693118623_);" d="M1564.977,626.019l-1.797-9.819
						c0,0-7.384-23.984,12.15-47.594c28.235-34.128,48.152-24.239,48.152-24.239s-0.717,9.961-0.617,16.433
						c0.081,5.223,4.288,7.248,8.135,3.713l48.151-44.246c0,0,12.888,69.771-85.938,115.998L1564.977,626.019z"/>
				</g>
			</g>
			<g>
				
					<linearGradient id="SVGID_00000091012152040200008670000015941315902276265143_" gradientUnits="userSpaceOnUse" x1="1060.6827" y1="629.6861" x2="970.0253" y2="1021.4553">
					<stop  offset="0" style="stop-color:#FF928E"/>
					<stop  offset="1" style="stop-color:#FEB3B1"/>
				</linearGradient>
				<path style="fill:url(#SVGID_00000091012152040200008670000015941315902276265143_);" d="M996.565,659.915l-6.346,110.718
					c-0.187,3.264,1.942,6.21,5.112,7.01c14.051,3.545,52.887,10.597,86.687-8.636c4.379-2.492,6.407-7.745,5.03-12.591
					l-28.266-99.483L996.565,659.915z"/>
				<g>
					
						<linearGradient id="SVGID_00000130643020610749912840000006786192178404570029_" gradientUnits="userSpaceOnUse" x1="976.2753" y1="448.6771" x2="1068.2755" y2="706.6776">
						<stop  offset="0" style="stop-color:#FF928E"/>
						<stop  offset="1" style="stop-color:#FEB3B1"/>
					</linearGradient>
					<path style="fill:url(#SVGID_00000130643020610749912840000006786192178404570029_);" d="M1084.574,547.152
						c0,0,30.963,71.127,33.042,108.459c2.079,37.332,10.124,61.556-33.042,69.074c-43.166,7.518-79.53-13.986-99.229-51.173
						c0,0-30.866-57.301-23.942-80.768C968.326,569.277,1084.574,547.152,1084.574,547.152z"/>
					
						<linearGradient id="SVGID_00000040555532222277948380000000245897431069765765_" gradientUnits="userSpaceOnUse" x1="1000.4882" y1="546.3339" x2="1165.3406" y2="758.5809">
						<stop  offset="0" style="stop-color:#09005D"/>
						<stop  offset="1" style="stop-color:#1A0F91"/>
					</linearGradient>
					<path style="fill:url(#SVGID_00000040555532222277948380000000245897431069765765_);" d="M1000.095,646.775l2.457-1.083
						c3.128-1.379,4.466-5.103,2.895-8.139c-6.087-11.761-17.953-38.712-2.624-44.999c19.756-8.102,98.012-24.061,114.896-51.829
						c16.227-26.687,1.849-61.136-19.759-70.935c-1.446-0.656-3.151-0.135-3.893,1.269l-1.801,3.407
						c-1.233,2.333-4.678,1.979-5.411-0.555l0,0c-0.704-2.433-3.94-2.905-5.282-0.757c-5.19,8.307-19.202,21.775-56.672,28.691
						c-53.253,9.828-88.46,31.379-89.337,68.177c-0.056,2.338-2.543,3.638-4.54,2.421c-3.932-2.396-10.224-3.521-18.634,3.55
						c-14.625,12.297-8.64,44.197,23.42,70.437c1.523,1.246,1.51,3.624-0.139,4.698c-5.812,3.783-14.477,12.786,7.974,24.787
						c23.221,12.413,40.562,11.395,47.239,10.293c1.661-0.274,2.732-1.882,2.37-3.526l-7.127-32.343
						c-0.403-1.831,0.99-3.564,2.865-3.564H1000.095z"/>
					
						<linearGradient id="SVGID_00000162342792195472017070000015331240809268919442_" gradientUnits="userSpaceOnUse" x1="919.239" y1="469.0159" x2="1011.239" y2="727.0157">
						<stop  offset="0" style="stop-color:#FF928E"/>
						<stop  offset="1" style="stop-color:#FEB3B1"/>
					</linearGradient>
					<path style="fill:url(#SVGID_00000162342792195472017070000015331240809268919442_);" d="M1001.436,653.599
						c0,0-11.812-45.435-32.183-32.696c-20.371,12.739,10.571,50.908,26.947,52.608L1001.436,653.599z"/>
				</g>
			</g>
		</g>
		<g>
			<path style="fill:#FFFFFF;" d="M1212.107,968.808l1.607,2.567c0.159,0.251,0.084,0.583-0.167,0.742
				c-0.251,0.159-0.583,0.084-0.742-0.167c-0.002-0.003-0.006-0.009-0.007-0.012l-1.554-2.606c-0.143-0.24-0.065-0.55,0.175-0.693
				C1211.655,968.499,1211.961,968.576,1212.107,968.808z"/>
			<path style="fill:#FFFFFF;" d="M1217.514,977.333l1.651,2.538c0.197,0.298,0.114,0.7-0.184,0.896
				c-0.298,0.196-0.7,0.114-0.896-0.184c-0.002-0.003-0.008-0.012-0.01-0.015l-1.6-2.579c-0.179-0.288-0.09-0.667,0.198-0.846
				C1216.957,976.967,1217.332,977.054,1217.514,977.333z"/>
			<path style="fill:#FFFFFF;" d="M1223.07,985.757l1.697,2.51c0.231,0.338,0.145,0.798-0.192,1.03
				c-0.337,0.231-0.798,0.145-1.03-0.192c-0.001-0.002-0.008-0.012-0.009-0.014l-1.661-2.544c-0.216-0.331-0.123-0.775,0.208-0.991
				C1222.411,985.34,1222.852,985.434,1223.07,985.757z"/>
			<path style="fill:#FFFFFF;" d="M1228.788,994.073l1.752,2.466l0.004,0.005c0.263,0.37,0.176,0.883-0.194,1.146
				c-0.37,0.263-0.883,0.176-1.146-0.194c-0.002-0.003-0.006-0.008-0.008-0.011l-1.719-2.504c-0.249-0.363-0.157-0.859,0.206-1.109
				c0.359-0.247,0.849-0.159,1.101,0.195L1228.788,994.073z"/>
			<path style="fill:#FFFFFF;" d="M1234.705,1002.234l1.82,2.414l0.005,0.006c0.3,0.398,0.221,0.965-0.177,1.265
				c-0.398,0.3-0.964,0.221-1.265-0.177c-0.002-0.002-0.007-0.009-0.009-0.012l-1.79-2.456c-0.286-0.392-0.2-0.942,0.192-1.228
				c0.388-0.283,0.93-0.201,1.219,0.18L1234.705,1002.234z"/>
			<path style="fill:#FFFFFF;" d="M1240.856,1010.216l1.892,2.357l0.006,0.007c0.34,0.424,0.273,1.044-0.151,1.384
				c-0.424,0.34-1.043,0.273-1.384-0.152c-0.002-0.003-0.008-0.009-0.01-0.012l-1.865-2.401c-0.325-0.419-0.249-1.021,0.169-1.347
				c0.414-0.322,1.009-0.251,1.337,0.156L1240.856,1010.216z"/>
			<path style="fill:#FFFFFF;" d="M1247.249,1018l1.966,2.293l0.007,0.008c0.383,0.447,0.331,1.119-0.115,1.502
				c-0.447,0.383-1.119,0.331-1.502-0.115c-0.002-0.003-0.009-0.01-0.011-0.013l-1.943-2.341c-0.367-0.442-0.306-1.099,0.136-1.466
				c0.438-0.364,1.085-0.308,1.454,0.123L1247.249,1018z"/>
			<path style="fill:#FFFFFF;" d="M1253.891,1025.566l2.036,2.229l0.008,0.009c0.422,0.463,0.39,1.18-0.072,1.602
				c-0.462,0.422-1.18,0.39-1.602-0.072l-0.007-0.008l-2.031-2.267c-0.412-0.46-0.374-1.168,0.087-1.58
				c0.458-0.41,1.159-0.374,1.573,0.078L1253.891,1025.566z"/>
			<path style="fill:#FFFFFF;" d="M1260.773,1032.908l2.117,2.151l0.01,0.01c0.458,0.466,0.453,1.215-0.013,1.674
				c-0.466,0.459-1.215,0.453-1.674-0.013l-0.008-0.008l-2.115-2.191c-0.448-0.464-0.435-1.204,0.029-1.653
				c0.461-0.446,1.195-0.435,1.644,0.021L1260.773,1032.908z"/>
			<path style="fill:#FFFFFF;" d="M1267.926,1039.978l2.2,2.063l0.011,0.01c0.497,0.466,0.522,1.247,0.056,1.743
				c-0.466,0.497-1.246,0.522-1.743,0.056l-0.009-0.008l-2.202-2.105c-0.486-0.465-0.504-1.236-0.039-1.722
				c0.462-0.483,1.227-0.504,1.714-0.047L1267.926,1039.978z"/>
			<path style="fill:#FFFFFF;" d="M1275.361,1046.741l2.287,1.964l0.013,0.011c0.537,0.462,0.599,1.272,0.137,1.809
				c-0.462,0.538-1.271,0.599-1.809,0.137l-0.009-0.008l-2.293-2.009c-0.527-0.461-0.58-1.262-0.118-1.789
				c0.459-0.524,1.252-0.579,1.779-0.127L1275.361,1046.741z"/>
			<path style="fill:#FFFFFF;" d="M1283.087,1053.161l2.375,1.852l0.016,0.012c0.58,0.452,0.684,1.29,0.231,1.87
				s-1.29,0.684-1.87,0.232l-0.01-0.008l-2.388-1.9c-0.569-0.453-0.664-1.282-0.211-1.852c0.45-0.566,1.271-0.662,1.841-0.219
				L1283.087,1053.161z"/>
			<path style="fill:#FFFFFF;" d="M1291.109,1059.191l2.465,1.725l0.018,0.013c0.625,0.438,0.778,1.3,0.34,1.925
				c-0.438,0.625-1.3,0.778-1.925,0.34l-0.011-0.008l-2.484-1.775c-0.614-0.439-0.757-1.293-0.318-1.907
				c0.436-0.61,1.282-0.755,1.896-0.326L1291.109,1059.191z"/>
			<path style="fill:#FFFFFF;" d="M1299.434,1064.78l2.556,1.583l0.021,0.013c0.672,0.416,0.88,1.299,0.464,1.971
				c-0.416,0.672-1.299,0.88-1.971,0.464l-0.012-0.008l-2.583-1.634c-0.661-0.418-0.858-1.294-0.44-1.955
				c0.416-0.657,1.283-0.855,1.942-0.448L1299.434,1064.78z"/>
			<path style="fill:#FFFFFF;" d="M1308.06,1069.872l2.645,1.422l0.025,0.013c0.721,0.387,0.991,1.285,0.604,2.006
				c-0.387,0.721-1.286,0.991-2.006,0.604l-0.013-0.007l-2.681-1.475c-0.709-0.39-0.968-1.282-0.578-1.991
				c0.388-0.705,1.271-0.965,1.978-0.585L1308.06,1069.872z"/>
			<path style="fill:#FFFFFF;" d="M1316.979,1074.406l2.731,1.241l0.029,0.013c0.77,0.35,1.11,1.258,0.76,2.027
				s-1.257,1.11-2.027,0.761l-0.014-0.007l-2.776-1.295c-0.759-0.354-1.087-1.256-0.733-2.015c0.352-0.754,1.245-1.083,2-0.74
				L1316.979,1074.406z"/>
			<path style="fill:#FFFFFF;" d="M1326.169,1078.335l2.811,1.052l0.032,0.012c0.801,0.3,1.207,1.192,0.908,1.993
				c-0.3,0.801-1.192,1.208-1.993,0.908l-0.005-0.002l-2.872-1.085c-0.797-0.301-1.2-1.192-0.898-1.99
				c0.301-0.797,1.192-1.2,1.99-0.898L1326.169,1078.335z"/>
			<path style="fill:#FFFFFF;" d="M1335.613,1081.587l2.874,0.831l0.036,0.01c0.83,0.24,1.309,1.108,1.069,1.938
				c-0.24,0.83-1.108,1.309-1.938,1.069l-0.005-0.001l-2.942-0.861c-0.827-0.242-1.301-1.109-1.059-1.935
				c0.242-0.827,1.109-1.301,1.935-1.059L1335.613,1081.587z"/>
			<path style="fill:#FFFFFF;" d="M1345.268,1084.088l2.93,0.596l0.038,0.008c0.856,0.174,1.409,1.009,1.235,1.865
				s-1.009,1.409-1.865,1.235l-0.005-0.001l-3.005-0.621c-0.853-0.176-1.401-1.01-1.225-1.863c0.176-0.853,1.01-1.401,1.863-1.225
				L1345.268,1084.088z"/>
			<path style="fill:#FFFFFF;" d="M1355.089,1085.788l2.971,0.35l0.039,0.005c0.876,0.104,1.503,0.898,1.4,1.774
				c-0.103,0.876-0.898,1.503-1.774,1.4l-0.005,0l-3.048-0.37c-0.873-0.106-1.495-0.9-1.39-1.773c0.106-0.873,0.9-1.496,1.773-1.39
				L1355.089,1085.788z"/>
			<path style="fill:#FFFFFF;" d="M1365.02,1086.674l2.99,0.111l0.038,0.001c0.891,0.033,1.586,0.782,1.553,1.673
				c-0.033,0.891-0.782,1.587-1.673,1.553h-0.005l-3.065-0.124c-0.888-0.036-1.579-0.785-1.543-1.673
				c0.036-0.888,0.785-1.579,1.673-1.543L1365.02,1086.674z"/>
			<path style="fill:#FFFFFF;" d="M1374.994,1086.775l2.992-0.116l0.036-0.001c0.9-0.035,1.658,0.666,1.693,1.566
				s-0.666,1.658-1.566,1.693h-0.005l-3.064,0.109c-0.897,0.032-1.651-0.669-1.683-1.567c-0.032-0.897,0.67-1.651,1.567-1.682
				L1374.994,1086.775z"/>
			<path style="fill:#FFFFFF;" d="M1384.954,1086.135l2.978-0.328l0.033-0.004c0.904-0.1,1.718,0.553,1.818,1.457
				c0.099,0.905-0.553,1.718-1.457,1.818l-0.005,0l-3.046,0.325c-0.902,0.096-1.711-0.557-1.807-1.459
				c-0.096-0.902,0.557-1.711,1.459-1.807L1384.954,1086.135z"/>
			<path style="fill:#FFFFFF;" d="M1394.856,1084.812l2.953-0.521l0.03-0.005c0.905-0.16,1.768,0.444,1.927,1.349
				c0.16,0.905-0.444,1.768-1.349,1.928l-0.005,0.001l-3.016,0.522c-0.903,0.156-1.761-0.449-1.917-1.351
				c-0.156-0.903,0.449-1.761,1.351-1.917L1394.856,1084.812z"/>
			<path style="fill:#FFFFFF;" d="M1404.664,1082.866l2.92-0.696l0.027-0.006c0.903-0.215,1.809,0.342,2.024,1.245
				c0.215,0.903-0.342,1.809-1.245,2.024l-0.005,0.001l-2.978,0.7c-0.901,0.212-1.802-0.347-2.014-1.248
				c-0.212-0.901,0.347-1.802,1.248-2.014L1404.664,1082.866z"/>
			<path style="fill:#FFFFFF;" d="M1414.355,1080.359l2.881-0.853l0.025-0.007c0.898-0.266,1.842,0.247,2.108,1.145
				c0.266,0.899-0.247,1.842-1.145,2.108l-0.005,0.002l-2.934,0.858c-0.897,0.262-1.836-0.252-2.098-1.149
				c-0.262-0.897,0.252-1.836,1.149-2.098L1414.355,1080.359z"/>
			<path style="fill:#FFFFFF;" d="M1423.911,1077.349l2.839-0.992l0.022-0.008c0.893-0.312,1.87,0.159,2.182,1.052
				c0.312,0.893-0.159,1.87-1.052,2.182l-0.005,0.002l-2.887,0.999c-0.891,0.308-1.864-0.164-2.172-1.056
				c-0.308-0.891,0.164-1.864,1.056-2.172L1423.911,1077.349z"/>
			<path style="fill:#FFFFFF;" d="M1433.324,1073.895l2.798-1.108l0.02-0.008c0.882-0.349,1.881,0.083,2.23,0.965
				c0.349,0.882-0.078,1.879-0.961,2.228l-2.835,1.131c-0.884,0.353-1.886-0.078-2.238-0.961c-0.353-0.884,0.078-1.886,0.961-2.238
				l0.005-0.002L1433.324,1073.895z"/>
			<path style="fill:#FFFFFF;" d="M1442.602,1070.07l2.751-1.216l0.017-0.008c0.861-0.381,1.867,0.009,2.248,0.87
				c0.381,0.861-0.004,1.865-0.865,2.246l-2.782,1.239c-0.862,0.384-1.872-0.003-2.256-0.865c-0.384-0.862,0.004-1.872,0.865-2.256
				l0.004-0.002L1442.602,1070.07z"/>
			<path style="fill:#FFFFFF;" d="M1451.728,1065.896l2.713-1.316l0.015-0.007c0.84-0.407,1.851-0.057,2.259,0.783
				c0.407,0.84,0.061,1.849-0.779,2.256l-2.74,1.339c-0.841,0.411-1.856,0.062-2.266-0.778c-0.411-0.841-0.062-1.856,0.779-2.266
				l0.004-0.002L1451.728,1065.896z"/>
			<path style="fill:#FFFFFF;" d="M1460.724,1061.404l2.672-1.403l0.013-0.007c0.82-0.43,1.833-0.115,2.263,0.705
				c0.43,0.82,0.119,1.831-0.701,2.261l-2.695,1.425c-0.821,0.434-1.837,0.12-2.271-0.7c-0.434-0.821-0.12-1.837,0.7-2.271
				l0.004-0.002L1460.724,1061.404z"/>
			<path style="fill:#FFFFFF;" d="M1469.578,1056.64l2.633-1.478l0.01-0.006c0.801-0.449,1.814-0.164,2.263,0.636
				c0.449,0.801,0.168,1.812-0.632,2.261l-2.65,1.496c-0.801,0.453-1.818,0.17-2.271-0.631c-0.453-0.802-0.17-1.818,0.631-2.271
				l0.004-0.002L1469.578,1056.64z"/>
			<path style="fill:#FFFFFF;" d="M1478.317,1051.644l2.602-1.536l0.008-0.005c0.784-0.463,1.795-0.202,2.257,0.582
				c0.463,0.784,0.206,1.792-0.578,2.255l-2.615,1.553c-0.785,0.466-1.799,0.208-2.265-0.577s-0.208-1.799,0.577-2.265l0.004-0.002
				L1478.317,1051.644z"/>
			<path style="fill:#FFFFFF;" d="M1486.96,1046.468l2.575-1.581l0.006-0.004c0.769-0.472,1.776-0.232,2.248,0.538
				c0.472,0.769,0.235,1.773-0.534,2.245l-2.583,1.596c-0.77,0.476-1.78,0.237-2.255-0.533c-0.476-0.77-0.237-1.78,0.533-2.255
				l0.004-0.002L1486.96,1046.468z"/>
			<path style="fill:#FFFFFF;" d="M1495.524,1041.15l2.56-1.619c0.755-0.481,1.756-0.259,2.237,0.496
				c0.481,0.755,0.258,1.757-0.497,2.238l-2.564,1.632c-0.757,0.481-1.761,0.259-2.243-0.499c-0.482-0.757-0.259-1.761,0.499-2.243
				l0.004-0.002L1495.524,1041.15z"/>
			<path style="fill:#FFFFFF;" d="M1504.034,1035.726l2.544-1.642c0.745-0.483,1.739-0.27,2.222,0.474
				c0.483,0.745,0.271,1.739-0.473,2.221l-2.545,1.653c-0.746,0.484-1.744,0.272-2.228-0.474c-0.484-0.746-0.272-1.744,0.474-2.228
				L1504.034,1035.726z"/>
			<path style="fill:#FFFFFF;" d="M1512.505,1030.235l2.538-1.656c0.736-0.481,1.723-0.274,2.204,0.462
				c0.481,0.736,0.277,1.722-0.459,2.203l-2.536,1.664c-0.737,0.484-1.727,0.278-2.211-0.459c-0.484-0.737-0.278-1.727,0.459-2.211
				L1512.505,1030.235z"/>
			<path style="fill:#FFFFFF;" d="M1520.963,1024.711l2.538-1.659c0.73-0.477,1.708-0.272,2.185,0.458
				c0.477,0.73,0.275,1.706-0.455,2.183l-2.532,1.665c-0.73,0.481-1.712,0.278-2.192-0.452c-0.48-0.73-0.278-1.712,0.452-2.192
				L1520.963,1024.711z"/>
			<path style="fill:#FFFFFF;" d="M1529.429,1019.187l2.545-1.652c0.725-0.47,1.694-0.264,2.164,0.461
				c0.47,0.725,0.266,1.693-0.459,2.163l-2.536,1.656c-0.725,0.475-1.697,0.272-2.172-0.452c-0.475-0.725-0.272-1.697,0.453-2.172
				L1529.429,1019.187z"/>
			<path style="fill:#FFFFFF;" d="M1537.925,1013.699l2.558-1.634c0.722-0.461,1.68-0.25,2.141,0.472
				c0.461,0.722,0.25,1.681-0.472,2.142l-2.547,1.637c-0.721,0.466-1.684,0.26-2.15-0.462s-0.26-1.684,0.461-2.15L1537.925,1013.699
				z"/>
			<path style="fill:#FFFFFF;" d="M1546.475,1008.282l2.578-1.606c0.72-0.449,1.668-0.228,2.117,0.492
				c0.449,0.72,0.228,1.668-0.492,2.117l-0.002,0.001l-2.563,1.606l-0.005,0.003c-0.721,0.452-1.672,0.234-2.124-0.487
				c-0.452-0.721-0.234-1.672,0.487-2.124L1546.475,1008.282z"/>
			<path style="fill:#FFFFFF;" d="M1555.105,1002.984l2.609-1.559c0.712-0.425,1.634-0.193,2.059,0.519
				c0.423,0.708,0.196,1.624-0.507,2.052l-0.008,0.005l-2.582,1.572l-0.007,0.004c-0.714,0.435-1.646,0.208-2.081-0.506
				c-0.435-0.715-0.208-1.646,0.506-2.081L1555.105,1002.984z"/>
			<path style="fill:#FFFFFF;" d="M1563.838,997.844l2.645-1.509c0.7-0.4,1.591-0.156,1.991,0.544
				c0.397,0.696,0.158,1.582-0.533,1.984l-0.009,0.005l-2.615,1.522l-0.008,0.005c-0.703,0.409-1.604,0.171-2.013-0.532
				c-0.409-0.702-0.171-1.604,0.532-2.013L1563.838,997.844z"/>
			<path style="fill:#FFFFFF;" d="M1572.692,992.887l2.679-1.444c0.689-0.371,1.549-0.114,1.92,0.575
				c0.369,0.685,0.116,1.539-0.564,1.914l-0.011,0.006l-2.647,1.455l-0.01,0.005c-0.692,0.381-1.562,0.128-1.942-0.564
				c-0.38-0.692-0.128-1.562,0.564-1.942L1572.692,992.887z"/>
			<path style="fill:#FFFFFF;" d="M1581.676,988.165l2.734-1.354c0.68-0.337,1.505-0.059,1.842,0.622
				c0.335,0.677,0.062,1.497-0.611,1.837l-0.018,0.009l-2.688,1.36l-0.017,0.008c-0.684,0.346-1.519,0.072-1.865-0.612
				c-0.346-0.684-0.072-1.519,0.612-1.865L1581.676,988.165z"/>
			<path style="fill:#FFFFFF;" d="M1590.882,983.82l2.82-1.191c0.678-0.286,1.46,0.031,1.746,0.709
				c0.285,0.674-0.028,1.451-0.698,1.742l-0.029,0.012l-2.755,1.191l-0.027,0.012c-0.682,0.295-1.474-0.019-1.769-0.701
				c-0.295-0.682,0.019-1.474,0.701-1.769L1590.882,983.82z"/>
			<path style="fill:#FFFFFF;" d="M1600.405,980.121l2.927-0.936c0.679-0.217,1.405,0.157,1.622,0.836
				c0.216,0.675-0.153,1.397-0.825,1.619l-0.041,0.013l-2.84,0.935l-0.039,0.013c-0.684,0.225-1.42-0.147-1.645-0.83
				c-0.225-0.684,0.147-1.42,0.83-1.645L1600.405,980.121z"/>
			<path style="fill:#FFFFFF;" d="M1610.289,977.396l3.036-0.57c0.677-0.127,1.33,0.319,1.457,0.996
				c0.127,0.674-0.314,1.323-0.985,1.455l-0.054,0.01l-2.926,0.575l-0.052,0.01c-0.683,0.134-1.346-0.311-1.48-0.994
				c-0.134-0.683,0.311-1.346,0.994-1.48L1610.289,977.396z"/>
			<path style="fill:#FFFFFF;" d="M1620.491,976.036l3.093-0.084c0.666-0.018,1.22,0.507,1.238,1.173
				c0.018,0.662-0.501,1.214-1.162,1.237l-0.064,0.002l-2.966,0.105l-0.063,0.002c-0.672,0.024-1.237-0.502-1.261-1.175
				c-0.024-0.672,0.502-1.237,1.175-1.261L1620.491,976.036z"/>
			<path style="fill:#FFFFFF;" d="M1630.801,976.46l3.054,0.527c0.633,0.109,1.058,0.711,0.949,1.344
				c-0.109,0.63-0.704,1.053-1.334,0.95l-0.068-0.011l-2.922-0.479l-0.069-0.011c-0.641-0.105-1.076-0.71-0.97-1.351
				c0.105-0.641,0.71-1.075,1.351-0.971L1630.801,976.46z"/>
			<path style="fill:#FFFFFF;" d="M1640.818,978.889l2.894,1.084c0.58,0.217,0.874,0.863,0.656,1.443
				c-0.216,0.577-0.856,0.871-1.434,0.66l-0.057-0.021l-2.79-1.019l-0.057-0.021c-0.588-0.215-0.891-0.866-0.676-1.454
				c0.215-0.588,0.866-0.891,1.454-0.676L1640.818,978.889z"/>
			<path style="fill:#FFFFFF;" d="M1650.203,983.086l2.658,1.559c0.501,0.294,0.669,0.938,0.375,1.439
				c-0.291,0.496-0.926,0.666-1.425,0.383l-0.045-0.025l-2.593-1.469l-0.045-0.025c-0.516-0.293-0.698-0.948-0.405-1.465
				c0.293-0.516,0.948-0.698,1.465-0.405C1650.192,983.08,1650.2,983.084,1650.203,983.086z"/>
			<path style="fill:#FFFFFF;" d="M1658.754,988.746l2.386,1.939c0.419,0.34,0.482,0.956,0.142,1.374
				c-0.337,0.415-0.944,0.481-1.362,0.152l-0.034-0.027l-2.347-1.85l-0.034-0.027c-0.433-0.342-0.508-0.97-0.166-1.404
				c0.342-0.434,0.97-0.508,1.404-0.166C1658.745,988.738,1658.751,988.743,1658.754,988.746z"/>
			<path style="fill:#FFFFFF;" d="M1666.365,995.585l2.086,2.245c0.339,0.365,0.318,0.935-0.047,1.274
				c-0.361,0.336-0.924,0.318-1.265-0.037l-0.026-0.027l-2.068-2.161l-0.026-0.027c-0.353-0.369-0.34-0.954,0.029-1.307
				c0.369-0.353,0.954-0.34,1.307,0.029C1666.357,995.577,1666.363,995.583,1666.365,995.585z"/>
			<path style="fill:#FFFFFF;" d="M1672.957,1003.38l1.771,2.499c0.264,0.372,0.176,0.888-0.197,1.152
				c-0.369,0.261-0.879,0.178-1.145-0.186l-0.02-0.027l-1.769-2.419l-0.019-0.027c-0.277-0.379-0.194-0.91,0.184-1.187
				c0.379-0.277,0.91-0.194,1.187,0.184C1672.952,1003.372,1672.956,1003.378,1672.957,1003.38z"/>
			<path style="fill:#FFFFFF;" d="M1678.472,1011.962l1.433,2.703c0.194,0.367,0.055,0.821-0.312,1.016
				c-0.363,0.192-0.813,0.057-1.01-0.301l-0.014-0.026l-1.445-2.63l-0.014-0.026c-0.206-0.375-0.069-0.846,0.306-1.051
				c0.375-0.206,0.845-0.069,1.051,0.306C1678.468,1011.954,1678.471,1011.959,1678.472,1011.962z"/>
			<path style="fill:#FFFFFF;" d="M1682.836,1021.173l1.072,2.864c0.131,0.35-0.047,0.74-0.396,0.871
				c-0.347,0.13-0.732-0.043-0.867-0.386l-0.01-0.025l-1.095-2.797l-0.01-0.025c-0.141-0.36,0.037-0.765,0.396-0.906
				c0.36-0.141,0.765,0.036,0.906,0.396C1682.833,1021.166,1682.835,1021.171,1682.836,1021.173z"/>
			<path style="fill:#FFFFFF;" d="M1685.965,1030.867l0.685,2.978c0.074,0.324-0.128,0.646-0.451,0.721
				c-0.321,0.074-0.64-0.124-0.719-0.442l-0.006-0.024l-0.717-2.92l-0.006-0.024c-0.082-0.335,0.123-0.673,0.457-0.755
				c0.335-0.082,0.673,0.122,0.755,0.457C1685.964,1030.86,1685.965,1030.865,1685.965,1030.867z"/>
			<path style="fill:#FFFFFF;" d="M1687.773,1040.884l0.272,3.043c0.026,0.29-0.188,0.545-0.477,0.571
				c-0.287,0.026-0.54-0.184-0.57-0.469l-0.002-0.022l-0.313-2.994l-0.002-0.023c-0.031-0.302,0.187-0.571,0.489-0.603
				c0.302-0.031,0.572,0.187,0.603,0.489C1687.772,1040.877,1687.772,1040.882,1687.773,1040.884z"/>
		</g>
		<g>
			<g>
				<g>
					<g>
						<path style="fill:#91B3FA;" d="M314.191,1337.925l429.529,0.001v-82.815l-429.529,0.001
							C323.384,1255.111,323.384,1337.925,314.191,1337.925z"/>
						
							<linearGradient id="SVGID_00000041296646267155404950000001966623606637412750_" gradientUnits="userSpaceOnUse" x1="552.358" y1="1461.7656" x2="597.3619" y2="2013.8192">
							<stop  offset="0" style="stop-color:#4042E2"/>
							<stop  offset="1" style="stop-color:#4F52FF"/>
						</linearGradient>
						<path style="fill:url(#SVGID_00000041296646267155404950000001966623606637412750_);" d="M743.719,1317.202v-37.9
							c0-13.36-8.488-24.191-18.959-24.191H316.002c-8.234,0-14.909-6.43-14.909-14.362c0-2.41,2.028-4.364,4.53-4.364h446.742
							c10.245,0,26.511,15.516,26.511,34.657v52.932c0,18.047-15.791,32.677-25.451,32.677H307.973c-3.8,0-6.88-2.967-6.88-6.628
							c0-6.682,5.623-12.098,12.559-12.098h413.827C736.448,1337.925,743.719,1328.647,743.719,1317.202z"/>
					</g>
					
						<linearGradient id="SVGID_00000170981225831309228750000001059412180047373475_" gradientUnits="userSpaceOnUse" x1="328.055" y1="1272.1029" x2="732.8175" y2="1272.1029">
						<stop  offset="0" style="stop-color:#DAE3FE"/>
						<stop  offset="1" style="stop-color:#E9EFFD"/>
					</linearGradient>
					<path style="fill:url(#SVGID_00000170981225831309228750000001059412180047373475_);" d="M731.807,1273.113H329.065
						c-0.558,0-1.01-0.452-1.01-1.01c0-0.558,0.452-1.01,1.01-1.01h402.742c0.558,0,1.01,0.452,1.01,1.01
						C732.818,1272.661,732.365,1273.113,731.807,1273.113z"/>
					
						<linearGradient id="SVGID_00000046341057526891733550000003978923825316091546_" gradientUnits="userSpaceOnUse" x1="328.055" y1="1284.395" x2="732.8175" y2="1284.395">
						<stop  offset="0" style="stop-color:#DAE3FE"/>
						<stop  offset="1" style="stop-color:#E9EFFD"/>
					</linearGradient>
					<path style="fill:url(#SVGID_00000046341057526891733550000003978923825316091546_);" d="M731.807,1285.406H329.065
						c-0.558,0-1.01-0.452-1.01-1.01c0-0.558,0.452-1.01,1.01-1.01h402.742c0.558,0,1.01,0.452,1.01,1.01
						C732.818,1284.953,732.365,1285.406,731.807,1285.406z"/>
					
						<linearGradient id="SVGID_00000055702884207503601780000008766509536859850896_" gradientUnits="userSpaceOnUse" x1="328.055" y1="1296.6877" x2="732.8175" y2="1296.6877">
						<stop  offset="0" style="stop-color:#DAE3FE"/>
						<stop  offset="1" style="stop-color:#E9EFFD"/>
					</linearGradient>
					<path style="fill:url(#SVGID_00000055702884207503601780000008766509536859850896_);" d="M731.807,1297.698H329.065
						c-0.558,0-1.01-0.452-1.01-1.01s0.452-1.01,1.01-1.01h402.742c0.558,0,1.01,0.452,1.01,1.01S732.365,1297.698,731.807,1297.698
						z"/>
					
						<linearGradient id="SVGID_00000062905281060808137680000004561221163055468456_" gradientUnits="userSpaceOnUse" x1="328.055" y1="1308.9801" x2="732.8175" y2="1308.9801">
						<stop  offset="0" style="stop-color:#DAE3FE"/>
						<stop  offset="1" style="stop-color:#E9EFFD"/>
					</linearGradient>
					<path style="fill:url(#SVGID_00000062905281060808137680000004561221163055468456_);" d="M731.807,1309.99H329.065
						c-0.558,0-1.01-0.452-1.01-1.01s0.452-1.01,1.01-1.01h402.742c0.558,0,1.01,0.452,1.01,1.01S732.365,1309.99,731.807,1309.99z"
						/>
					
						<linearGradient id="SVGID_00000111876870579780063410000014642682501675594930_" gradientUnits="userSpaceOnUse" x1="328.055" y1="1321.2726" x2="732.8175" y2="1321.2726">
						<stop  offset="0" style="stop-color:#DAE3FE"/>
						<stop  offset="1" style="stop-color:#E9EFFD"/>
					</linearGradient>
					<path style="fill:url(#SVGID_00000111876870579780063410000014642682501675594930_);" d="M731.807,1322.283H329.065
						c-0.558,0-1.01-0.452-1.01-1.01c0-0.558,0.452-1.01,1.01-1.01h402.742c0.558,0,1.01,0.452,1.01,1.01
						C732.818,1321.831,732.365,1322.283,731.807,1322.283z"/>
				</g>
				<g>
					
						<linearGradient id="SVGID_00000055701143261707300410000014089050752175538095_" gradientUnits="userSpaceOnUse" x1="861.3223" y1="949.1691" x2="641.3224" y2="1217.1691">
						<stop  offset="0" style="stop-color:#4042E2"/>
						<stop  offset="1" style="stop-color:#4F52FF"/>
					</linearGradient>
					<path style="fill:url(#SVGID_00000055701143261707300410000014089050752175538095_);" d="M737.807,1494.144H203.695
						c-10.81,0-19.573-8.763-19.573-19.573v-99.229c0-10.81,8.763-19.573,19.573-19.573h534.112c10.81,0,19.573,8.763,19.573,19.573
						v99.229C757.38,1485.38,748.617,1494.144,737.807,1494.144z"/>
					<path style="fill:#7D97F4;" d="M309.627,1478.24h-54.092c-3.66,0-6.627-2.967-6.627-6.626v-93.316
						c0-3.66,2.967-6.627,6.627-6.627h54.092c3.66,0,6.627,2.967,6.627,6.627v93.316
						C316.254,1475.273,313.287,1478.24,309.627,1478.24z"/>
					<path style="fill:#7D97F4;" d="M346.038,1478.24h-14.489c-2.977,0-5.389-2.413-5.389-5.39v-95.79
						c0-2.977,2.413-5.39,5.389-5.39h14.489c2.977,0,5.389,2.413,5.389,5.39v95.79
						C351.427,1475.827,349.014,1478.24,346.038,1478.24z"/>
				</g>
			</g>
			<g>
				<g>
					<g>
						<g>
							<g>
								
									<linearGradient id="SVGID_00000144321398670735553720000001390329080764403332_" gradientUnits="userSpaceOnUse" x1="847.4388" y1="1299.3269" x2="852.1054" y2="1407.3268">
									<stop  offset="0" style="stop-color:#09005D"/>
									<stop  offset="1" style="stop-color:#1A0F91"/>
								</linearGradient>
								<path style="fill:url(#SVGID_00000144321398670735553720000001390329080764403332_);" d="M844.093,1454.922
									c-24.933,0-35.965-2.139-40.897-4.09c0.958,4.094,4.606,7.327,9.214,7.327h88.206c2.971,0,4.845-2.844,4.135-5.418
									C894.697,1453.55,873.341,1454.922,844.093,1454.922z"/>
								
									<linearGradient id="SVGID_00000167378108766611302750000015638662185025927567_" gradientUnits="userSpaceOnUse" x1="881.5561" y1="1258.9261" x2="853.7672" y2="1450.9227">
									<stop  offset="0" style="stop-color:#4042E2"/>
									<stop  offset="1" style="stop-color:#4F52FF"/>
								</linearGradient>
								<path style="fill:url(#SVGID_00000167378108766611302750000015638662185025927567_);" d="M904.751,1452.741
									c-0.143-0.519-0.353-1.03-0.722-1.501c-6.719-8.578-20.216-22.051-38.576-21.792c-26.314,0.37-35.02,3.01-54.957,0.192
									c-0.776-0.11-1.529,0.337-1.789,1.076l-5.362,15.24c-0.502,1.666-0.511,3.33-0.15,4.876
									c4.932,1.951,15.964,4.09,40.897,4.09C873.341,1454.922,894.697,1453.55,904.751,1452.741z"/>
							</g>
							
								<linearGradient id="SVGID_00000011718203228803303710000013624684177087463356_" gradientUnits="userSpaceOnUse" x1="809.753" y1="1422.3981" x2="837.7833" y2="1422.3981">
								<stop  offset="0" style="stop-color:#FF928E"/>
								<stop  offset="1" style="stop-color:#FEB3B1"/>
							</linearGradient>
							<path style="fill:url(#SVGID_00000011718203228803303710000013624684177087463356_);" d="M815.561,1412.075l-5.808,17.751
								c0,0,13.54,5.836,25.334,0.935l2.696-15.026L815.561,1412.075z"/>
							
								<linearGradient id="SVGID_00000128443812460887332120000018036102331803933375_" gradientUnits="userSpaceOnUse" x1="858.4206" y1="1136.3527" x2="649.9305" y2="1475.3358">
								<stop  offset="0" style="stop-color:#09005D"/>
								<stop  offset="1" style="stop-color:#1A0F91"/>
							</linearGradient>
							<path style="fill:url(#SVGID_00000128443812460887332120000018036102331803933375_);" d="M684.279,1178.131
								c0.359-0.418,0.897-0.639,1.446-0.593c12.263,1.024,149.773,12.762,179.023,26.532
								c29.464,13.87-20.905,201.438-24.758,215.612c-0.154,0.567-0.58,1.006-1.139,1.184c-2.53,0.805-10.423,2.475-24.587-1.672
								c-0.804-0.235-1.316-1.02-1.213-1.851c1.883-15.199,17.728-147.03,5.055-179.118c-0.219-0.554-0.725-0.941-1.313-1.037
								l-157.659-25.787c-1.324-0.217-1.9-1.799-1.026-2.816L684.279,1178.131z"/>
						</g>
						<g>
							<g>
								
									<linearGradient id="SVGID_00000117646560162981898930000007246611350411961023_" gradientUnits="userSpaceOnUse" x1="997.6291" y1="1292.837" x2="1002.2957" y2="1400.837">
									<stop  offset="0" style="stop-color:#09005D"/>
									<stop  offset="1" style="stop-color:#1A0F91"/>
								</linearGradient>
								<path style="fill:url(#SVGID_00000117646560162981898930000007246611350411961023_);" d="M997.146,1441.958
									c-19.436,15.617-29.37,20.868-34.431,22.443c3.3,2.576,8.158,2.8,11.75-0.086l68.76-55.248
									c2.315-1.86,2.004-5.241-0.154-6.793C1035.738,1409.198,1019.946,1423.639,997.146,1441.958z"/>
								
									<linearGradient id="SVGID_00000106134109677603442670000010486621585360693689_" gradientUnits="userSpaceOnUse" x1="1019.1984" y1="1278.8494" x2="991.4097" y2="1470.8444">
									<stop  offset="0" style="stop-color:#4042E2"/>
									<stop  offset="1" style="stop-color:#4F52FF"/>
								</linearGradient>
								<path style="fill:url(#SVGID_00000106134109677603442670000010486621585360693689_);" d="M1043.072,1402.274
									c-0.435-0.313-0.918-0.578-1.499-0.713c-10.585-2.447-29.505-4.445-43.657,7.255c-20.731,17.141-26.223,25.279-44.469,35.94
									l6.344,15.769c0.648,1.607,1.677,2.904,2.923,3.876c5.061-1.576,14.994-6.826,34.431-22.443
									C1019.946,1423.639,1035.738,1409.198,1043.072,1402.274z"/>
							</g>
							
								<linearGradient id="SVGID_00000096056966117554281570000003658139755594523033_" gradientUnits="userSpaceOnUse" x1="938.6162" y1="1426.1624" x2="971.4692" y2="1426.1624">
								<stop  offset="0" style="stop-color:#FF928E"/>
								<stop  offset="1" style="stop-color:#FEB3B1"/>
							</linearGradient>
							<path style="fill:url(#SVGID_00000096056966117554281570000003658139755594523033_);" d="M938.616,1416.375
								c1.386,1.263,14.832,28.381,14.832,28.381s14.969-3.238,18.021-12.711l-13.469-24.476L938.616,1416.375z"/>
							
								<linearGradient id="SVGID_00000085954855609580195180000010219218776372735363_" gradientUnits="userSpaceOnUse" x1="602.4028" y1="1146.4818" x2="882.4029" y2="1330.4817">
								<stop  offset="0" style="stop-color:#09005D"/>
								<stop  offset="1" style="stop-color:#1A0F91"/>
							</linearGradient>
							<path style="fill:url(#SVGID_00000085954855609580195180000010219218776372735363_);" d="M594.944,1176.218
								c0,0-4.865,11.705-4.666,27.26c0.274,21.512,17.569,38.968,39.056,40.041l176.468,8.047c3.727,0.17,6.88,2.749,7.813,6.361
								c4.147,16.04,24.416,65.296,123.496,163.583c2.636,2.615,6.743,3.06,9.882,1.077l14.104-8.91
								c1.481-0.935,1.953-2.876,1.068-4.387l-102.749-175.459c-5.397-8.906-14.072-15.34-24.161-17.919l-150.405-38.446
								L594.944,1176.218z"/>
						</g>
					</g>
					
						<linearGradient id="SVGID_00000016785229919348942730000008244321717032749972_" gradientUnits="userSpaceOnUse" x1="818.1747" y1="948.1885" x2="741.7184" y2="929.3271">
						<stop  offset="0" style="stop-color:#FF928E"/>
						<stop  offset="1" style="stop-color:#FEB3B1"/>
					</linearGradient>
					<path style="fill:url(#SVGID_00000016785229919348942730000008244321717032749972_);" d="M799.664,906.073
						c0,0-49.717,29.488-68.991,45.68l39.839,22.228c0,0,21.527-24.867,42.036-35.229L799.664,906.073z"/>
					<g>
						
							<linearGradient id="SVGID_00000003823240868744703280000006402067298166892194_" gradientUnits="userSpaceOnUse" x1="1162.1843" y1="128.4465" x2="990.1841" y2="548.4464">
							<stop  offset="0" style="stop-color:#09005D"/>
							<stop  offset="1" style="stop-color:#1A0F91"/>
						</linearGradient>
						<path style="fill:url(#SVGID_00000003823240868744703280000006402067298166892194_);" d="M594.697,1177.862
							c14.766,1.94,81.094,10.189,114.202,6.382c1.03-0.118,1.907-0.79,2.307-1.746c4.891-11.692,36.74-86.662,59.395-111.306
							c1.228-1.336,3.372-1.209,4.442,0.257c8.805,12.068,47.773,59.402,122.624,67.72c1.245,0.138,2.441-0.553,2.953-1.697
							l2.871-6.415c0.632-1.413,0.04-3.075-1.347-3.763c-12.606-6.257-69.505-36.433-88.507-80.152
							c-21.42-49.283-30.023-70.302-49.51-83.16c-10.699-7.059-17.613-12.146-21.674-15.299c-3.018-2.343-7.168-2.55-10.403-0.516
							c-23.789,14.95-115.603,81.214-139.831,226.356C591.95,1176.133,593.078,1177.649,594.697,1177.862z"/>
						
							<linearGradient id="SVGID_00000169518879069328559650000002892985981391953319_" gradientUnits="userSpaceOnUse" x1="894.9992" y1="1123.0674" x2="970.3928" y2="1123.0674">
							<stop  offset="0" style="stop-color:#FF928E"/>
							<stop  offset="1" style="stop-color:#FEB3B1"/>
						</linearGradient>
						<path style="fill:url(#SVGID_00000169518879069328559650000002892985981391953319_);" d="M894.999,1123.689l9.344-2.491
							l29.869-6.917c3.595-0.833,7.374-0.195,10.499,1.77l25.682,16.158l-70.924-0.119
							C898.732,1129.744,896.988,1126.79,894.999,1123.689z"/>
					</g>
					<g>
						
							<linearGradient id="SVGID_00000013898188726395326840000011119755274018065572_" gradientUnits="userSpaceOnUse" x1="842.847" y1="903.8544" x2="761.3391" y2="937.5353">
							<stop  offset="0" style="stop-color:#FF928E"/>
							<stop  offset="1" style="stop-color:#FEB3B1"/>
						</linearGradient>
						<path style="fill:url(#SVGID_00000013898188726395326840000011119755274018065572_);" d="M848.19,884.448
							c0.139,0.964-12.732,64.035-12.732,64.035l-35.856-8.115l3.317-61.59C802.919,878.778,845.862,868.316,848.19,884.448z"/>
						<path style="fill:#FFFFFF;" d="M810.984,892.503l-4.285,32.286c-0.055,0.414-0.055,0.823,0.004,1.236
							c0.362,2.531,2.244,11.146,10.942,8.683c7.892-2.235,15.128-4.158,20.126-2.629c2.244,0.686,3.598,2.96,3.128,5.259
							c-1.171,5.73-4.048,18.594-8.253,29.388c-0.853,2.19-3.252,3.341-5.509,2.683c-6.8-1.983-21.026-6.566-31.607-12.933
							c-1.434-0.863-2.287-2.422-2.217-4.094c0.344-8.151,1.297-32.927,0.495-39.872c-0.753-6.519-8.753-10.424-12.229-11.824
							c-1.14-0.459-2.033-1.357-2.488-2.498c-1.61-4.034-3.829-13.368,7.934-17.193c2.462-0.8,3.76-3.455,2.884-5.891
							c-1.742-4.85-2.477-12.252,6.623-16.33c9.249-4.145,16.157,0.786,19.886,4.793c1.508,1.62,3.928,1.867,5.799,0.685
							c1.065-0.673,2.438-0.894,4.096,0.139c2.234,1.391,5.193,0.443,6.346-1.923c2.215-4.546,6.729-9.416,15.784-7.865
							c16.068,2.752,17.888,20.557,13.649,30.99c-4.239,10.434-21.489,6.46-30.143,1.2c-6.58-3.999-15.115,0.192-18.828,2.432
							C811.943,889.933,811.164,891.141,810.984,892.503z"/>
						
							<linearGradient id="SVGID_00000024681911724825375550000004207685034778458800_" gradientUnits="userSpaceOnUse" x1="816.3179" y1="887.5553" x2="778.4268" y2="919.7208">
							<stop  offset="0" style="stop-color:#FF928E"/>
							<stop  offset="1" style="stop-color:#FEB3B1"/>
						</linearGradient>
						<path style="fill:url(#SVGID_00000024681911724825375550000004207685034778458800_);" d="M794.115,923.571
							c0,0,4.854-17.788-1.932-22.318c-6.787-4.53-16.838-2.178-14.625,11.222C780.311,929.143,794.115,923.571,794.115,923.571z"/>
					</g>
				</g>
				<g>
					<g>
						
							<linearGradient id="SVGID_00000103235659621097905280000002228509463046603708_" gradientUnits="userSpaceOnUse" x1="7131.9702" y1="-11211.0195" x2="6929.0171" y2="-11014.8037" gradientTransform="matrix(-1.388 -0.0686 -0.0685 1.3855 -6236.5127 -215.9469)">
							<stop  offset="0" style="stop-color:#09005D"/>
							<stop  offset="1" style="stop-color:#1A0F91"/>
						</linearGradient>
						<path style="fill:url(#SVGID_00000103235659621097905280000002228509463046603708_);" d="M867.105,1145.113
							c0.116,0.006,0.232,0.009,0.348,0.008l151.515-0.151c3.745-0.003,6.778-3.037,6.774-6.776c-0.004-3.74-3.055-6.829-6.79-6.763
							l-151.514,0.152c-3.746,0.003-6.778,3.036-6.774,6.775C860.668,1141.98,863.522,1144.935,867.105,1145.113z"/>
					</g>
					<g>
						
							<linearGradient id="SVGID_00000129178451541583774770000016454080021573408417_" gradientUnits="userSpaceOnUse" x1="4516.2271" y1="-10967.2432" x2="4313.2827" y2="-10771.0352" gradientTransform="matrix(0.6475 -1.2297 -1.2274 -0.6463 7293.9038 -7927.8447)">
							<stop  offset="0" style="stop-color:#09005D"/>
							<stop  offset="1" style="stop-color:#1A0F91"/>
						</linearGradient>
						<path style="fill:url(#SVGID_00000129178451541583774770000016454080021573408417_);" d="M1077.645,996.732
							c-0.054,0.102-0.106,0.206-0.154,0.313l-63.751,137.45c-1.577,3.397-0.105,7.427,3.287,8.999
							c3.393,1.573,7.481,0.11,8.996-3.305l63.751-137.45c1.577-3.398,0.105-7.427-3.287-9
							C1083.2,992.216,1079.317,993.557,1077.645,996.732z"/>
					</g>
				</g>
				<g>
					<path style="fill:#7D97F4;" d="M934.57,1152.717c-0.662,2.742-63.883,239.849-79.911,299.96
						c-1.848,6.928,3.312,13.73,10.402,13.73l0,0c4.944,0,9.253-3.406,10.45-8.261l70.179-284.538L934.57,1152.717z"/>
					<path style="fill:#7D97F4;" d="M969.189,1152.717c0.662,2.742,63.883,239.849,79.911,299.96
						c1.847,6.928-3.312,13.73-10.402,13.73l0,0c-4.944,0-9.253-3.406-10.45-8.261l-70.179-284.538L969.189,1152.717z"/>
					<path style="fill:#7D97F4;" d="M971.823,1144.964h-39.374v31.62c0,4.544,3.64,8.229,8.13,8.229h5.401v71.024
						c0,3.441,2.756,6.23,6.155,6.23l0,0c3.4,0,6.155-2.789,6.155-6.23v-71.024h2.741c5.959,0,10.791-4.889,10.791-10.921V1144.964z
						"/>
					<path style="fill:#91B3FA;" d="M835.636,1137.369h219.854c3.073,0,5.756,2.104,6.524,5.115l3.069,12.036
						c1.105,4.332-2.142,8.549-6.562,8.523l-225.593-1.313c-4.372-0.025-7.563-4.194-6.495-8.485l2.67-10.724
						C829.857,1139.492,832.549,1137.369,835.636,1137.369z"/>
				</g>
			</g>
		</g>
	</g>
</g>
</svg>
